<svg xmlns="http://www.w3.org/2000/svg" viewBox="0 0 500 500"><g id="freepik--background-complete--inject-68"><polygon points="181.53 94.86 181.53 168.51 171.19 168.51 171.19 186.37 153.33 168.51 55.3 168.51 55.3 94.86 181.53 94.86" style="fill:#fff"></polygon><path d="M181.53,94.86c.08,22.07.59,52.45.6,74.24h-.6l-10.34.06.65-.65.1,17.86v1.79l-1.28-1.26-17.94-17.79.6.25c-29.28,0-70.14.2-99,.12v-1l.12-73.65V94c31.92.17,95.19.55,127.09.86Zm0,0c-31.46.31-94.79.69-126.24.85l.86-.85.12,73.65-1-1c28.45,0,69.53.08,98.4.12l.24.25,17.79,17.94-1.27.53.09-17.86v-.66h.64l10.34.06-.6.6c.16-21.24.38-52.08.6-73.65Z" style="fill:#ebebeb"></path><path d="M94.55,131.68a6,6,0,1,1-6-6A6,6,0,0,1,94.55,131.68Z" style="fill:#ebebeb"></path><path d="M124.4,131.68a6,6,0,1,1-6-6A6,6,0,0,1,124.4,131.68Z" style="fill:#ebebeb"></path><path d="M154.24,131.68a6,6,0,1,1-6-6A6,6,0,0,1,154.24,131.68Z" style="fill:#ebebeb"></path><polygon points="345.77 161.35 345.77 219.06 353.87 219.06 353.87 233.06 367.87 219.06 444.7 219.06 444.7 161.35 345.77 161.35" style="fill:#fff"></polygon><path d="M345.77,161.35c.24,17,.47,41,.6,57.71l-.6-.59,8.1-.06h.65v.65l.1,14-1.27-.52,13.92-14.08.25-.25c22.75-.05,54.74-.15,77.19-.13l-1,1,.12-57.71.86.85c-24.66-.12-74.28-.58-98.94-.85Zm0,0c25.09-.28,74.69-.74,99.79-.86v.86l.12,57.71v1c-22.61.08-54.88-.12-77.82-.12l.61-.25L354.4,233.59l-1.28,1.27v-1.8l.09-14,.65.65-8.1-.05h-.6c0-17.07.47-41,.6-58.31Z" style="fill:#ebebeb"></path><path d="M413.94,190.2a4.69,4.69,0,1,0,4.69-4.68A4.69,4.69,0,0,0,413.94,190.2Z" style="fill:#ebebeb"></path><path d="M390.55,190.2a4.69,4.69,0,1,0,4.69-4.68A4.69,4.69,0,0,0,390.55,190.2Z" style="fill:#ebebeb"></path><path d="M367.16,190.2a4.69,4.69,0,1,0,4.68-4.68A4.69,4.69,0,0,0,367.16,190.2Z" style="fill:#ebebeb"></path><rect x="122.45" y="348.55" width="18.36" height="21.69" style="fill:#dbdbdb"></rect><rect x="140.81" y="348.55" width="11.64" height="22.49" style="fill:#c7c7c7"></rect><rect x="141.67" y="358.13" width="11.56" height="12.91" style="fill:#dbdbdb"></rect><rect x="153.23" y="358.13" width="7.21" height="12.91" style="fill:#c7c7c7"></rect><rect x="115.4" y="368.83" width="29.69" height="107.92" style="fill:#ebebeb"></rect><rect x="118.8" y="373.47" width="9.34" height="3.82" style="fill:#fff"></rect><rect x="130.74" y="373.47" width="9.34" height="3.82" style="fill:#fff"></rect><rect x="118.8" y="379.95" width="9.34" height="3.82" style="fill:#fff"></rect><rect x="130.74" y="379.95" width="9.34" height="3.82" style="fill:#fff"></rect><rect x="118.8" y="386.43" width="9.34" height="3.82" style="fill:#fff"></rect><rect x="130.74" y="386.43" width="9.34" height="3.82" style="fill:#fff"></rect><rect x="118.8" y="392.9" width="9.34" height="3.82" style="fill:#fff"></rect><rect x="130.74" y="392.9" width="9.34" height="3.82" style="fill:#fff"></rect><rect x="118.8" y="399.38" width="9.34" height="3.82" style="fill:#fff"></rect><rect x="130.74" y="399.38" width="9.34" height="3.82" style="fill:#fff"></rect><rect x="118.8" y="405.86" width="9.34" height="3.82" style="fill:#fff"></rect><rect x="130.74" y="405.86" width="9.34" height="3.82" style="fill:#fff"></rect><rect x="118.8" y="412.34" width="9.34" height="3.82" style="fill:#fff"></rect><rect x="130.74" y="412.34" width="9.34" height="3.82" style="fill:#fff"></rect><rect x="118.8" y="418.81" width="9.34" height="3.82" style="fill:#fff"></rect><rect x="130.74" y="418.81" width="9.34" height="3.82" style="fill:#fff"></rect><rect x="118.8" y="425.29" width="9.34" height="3.82" style="fill:#fff"></rect><rect x="130.74" y="425.29" width="9.34" height="3.82" style="fill:#fff"></rect><rect x="118.8" y="431.77" width="9.34" height="3.82" style="fill:#fff"></rect><rect x="130.74" y="431.77" width="9.34" height="3.82" style="fill:#fff"></rect><rect x="118.8" y="438.25" width="9.34" height="3.82" style="fill:#fff"></rect><rect x="130.74" y="438.25" width="9.34" height="3.82" style="fill:#fff"></rect><rect x="118.8" y="444.72" width="9.34" height="3.82" style="fill:#fff"></rect><rect x="130.74" y="444.72" width="9.34" height="3.82" style="fill:#fff"></rect><rect x="118.8" y="451.2" width="9.34" height="3.82" style="fill:#fff"></rect><rect x="130.74" y="451.2" width="9.34" height="3.82" style="fill:#fff"></rect><rect x="118.8" y="457.68" width="9.34" height="3.82" style="fill:#fff"></rect><rect x="130.74" y="457.68" width="9.34" height="3.82" style="fill:#fff"></rect><rect x="145.1" y="368.83" width="24.06" height="107.92" style="fill:#c7c7c7"></rect><rect x="159.08" y="457.68" width="7.67" height="3.82" transform="translate(325.83 919.17) rotate(180)" style="fill:#ebebeb"></rect><rect x="149.27" y="457.68" width="7.67" height="3.82" transform="translate(306.21 919.17) rotate(180)" style="fill:#ebebeb"></rect><rect x="159.08" y="451.2" width="7.67" height="3.82" transform="translate(325.83 906.22) rotate(180)" style="fill:#ebebeb"></rect><rect x="149.27" y="451.2" width="7.67" height="3.82" transform="translate(306.21 906.22) rotate(180)" style="fill:#ebebeb"></rect><rect x="159.08" y="444.72" width="7.67" height="3.82" transform="translate(325.83 893.26) rotate(180)" style="fill:#ebebeb"></rect><rect x="149.27" y="444.72" width="7.67" height="3.82" transform="translate(306.21 893.26) rotate(180)" style="fill:#ebebeb"></rect><rect x="159.08" y="438.25" width="7.67" height="3.82" transform="translate(325.83 880.31) rotate(180)" style="fill:#ebebeb"></rect><rect x="149.27" y="438.25" width="7.67" height="3.82" transform="translate(306.21 880.31) rotate(180)" style="fill:#ebebeb"></rect><rect x="159.08" y="431.77" width="7.67" height="3.82" transform="translate(325.83 867.35) rotate(180)" style="fill:#ebebeb"></rect><rect x="149.27" y="431.77" width="7.67" height="3.82" transform="translate(306.21 867.35) rotate(180)" style="fill:#ebebeb"></rect><rect x="159.08" y="425.29" width="7.67" height="3.82" transform="translate(325.83 854.4) rotate(180)" style="fill:#ebebeb"></rect><rect x="149.27" y="425.29" width="7.67" height="3.82" transform="translate(306.21 854.4) rotate(180)" style="fill:#ebebeb"></rect><rect x="159.08" y="418.81" width="7.67" height="3.82" transform="translate(325.83 841.44) rotate(180)" style="fill:#ebebeb"></rect><rect x="149.27" y="418.81" width="7.67" height="3.82" transform="translate(306.21 841.44) rotate(180)" style="fill:#ebebeb"></rect><rect x="159.08" y="412.34" width="7.67" height="3.82" transform="translate(325.83 828.49) rotate(180)" style="fill:#ebebeb"></rect><rect x="149.27" y="412.34" width="7.67" height="3.82" transform="translate(306.21 828.49) rotate(180)" style="fill:#ebebeb"></rect><rect x="159.08" y="405.86" width="7.67" height="3.82" transform="translate(325.83 815.53) rotate(180)" style="fill:#ebebeb"></rect><rect x="149.27" y="405.86" width="7.67" height="3.82" transform="translate(306.21 815.53) rotate(180)" style="fill:#ebebeb"></rect><rect x="159.08" y="399.38" width="7.67" height="3.82" transform="translate(325.83 802.58) rotate(180)" style="fill:#ebebeb"></rect><rect x="149.27" y="399.38" width="7.67" height="3.82" transform="translate(306.21 802.58) rotate(180)" style="fill:#ebebeb"></rect><rect x="159.08" y="392.9" width="7.67" height="3.82" transform="translate(325.83 789.62) rotate(180)" style="fill:#ebebeb"></rect><rect x="149.27" y="392.9" width="7.67" height="3.82" transform="translate(306.21 789.62) rotate(180)" style="fill:#ebebeb"></rect><rect x="159.08" y="386.43" width="7.67" height="3.82" transform="translate(325.83 776.67) rotate(180)" style="fill:#ebebeb"></rect><rect x="149.27" y="386.43" width="7.67" height="3.82" transform="translate(306.21 776.67) rotate(180)" style="fill:#ebebeb"></rect><rect x="159.08" y="379.95" width="7.67" height="3.82" transform="translate(325.83 763.71) rotate(180)" style="fill:#ebebeb"></rect><rect x="149.27" y="379.95" width="7.67" height="3.82" transform="translate(306.21 763.71) rotate(180)" style="fill:#ebebeb"></rect><rect x="159.08" y="373.47" width="7.67" height="3.82" transform="translate(325.83 750.76) rotate(180)" style="fill:#ebebeb"></rect><rect x="149.27" y="373.47" width="7.67" height="3.82" transform="translate(306.21 750.76) rotate(180)" style="fill:#ebebeb"></rect><rect x="292.76" y="323.74" width="29.19" height="153.01" style="fill:#dbdbdb"></rect><rect x="297.3" y="328.71" width="5.67" height="5.84" style="fill:#ebebeb"></rect><rect x="304.55" y="328.71" width="5.67" height="5.84" style="fill:#ebebeb"></rect><rect x="297.3" y="338.63" width="5.67" height="5.84" style="fill:#ebebeb"></rect><rect x="304.55" y="338.63" width="5.67" height="5.84" style="fill:#ebebeb"></rect><rect x="297.3" y="348.55" width="5.67" height="5.84" style="fill:#ebebeb"></rect><rect x="304.55" y="348.55" width="5.67" height="5.84" style="fill:#ebebeb"></rect><rect x="297.3" y="358.47" width="5.67" height="5.84" style="fill:#ebebeb"></rect><rect x="304.55" y="358.47" width="5.67" height="5.84" style="fill:#ebebeb"></rect><rect x="297.3" y="368.39" width="5.67" height="5.84" style="fill:#ebebeb"></rect><rect x="304.55" y="368.39" width="5.67" height="5.84" style="fill:#ebebeb"></rect><rect x="297.3" y="378.31" width="5.67" height="5.84" style="fill:#ebebeb"></rect><rect x="304.55" y="378.31" width="5.67" height="5.84" style="fill:#ebebeb"></rect><rect x="297.3" y="388.22" width="5.67" height="5.84" style="fill:#ebebeb"></rect><rect x="304.55" y="388.22" width="5.67" height="5.84" style="fill:#ebebeb"></rect><rect x="297.3" y="398.14" width="5.67" height="5.84" style="fill:#ebebeb"></rect><rect x="304.55" y="398.14" width="5.67" height="5.84" style="fill:#ebebeb"></rect><rect x="297.3" y="408.06" width="5.67" height="5.84" style="fill:#ebebeb"></rect><rect x="304.55" y="408.06" width="5.67" height="5.84" style="fill:#ebebeb"></rect><rect x="297.3" y="417.98" width="5.67" height="5.84" style="fill:#ebebeb"></rect><rect x="304.55" y="417.98" width="5.67" height="5.84" style="fill:#ebebeb"></rect><rect x="297.3" y="427.9" width="5.67" height="5.84" style="fill:#ebebeb"></rect><rect x="304.55" y="427.9" width="5.67" height="5.84" style="fill:#ebebeb"></rect><rect x="297.3" y="437.82" width="5.67" height="5.84" style="fill:#ebebeb"></rect><rect x="304.55" y="437.82" width="5.67" height="5.84" style="fill:#ebebeb"></rect><rect x="297.3" y="447.74" width="5.67" height="5.84" style="fill:#ebebeb"></rect><rect x="304.55" y="447.74" width="5.67" height="5.84" style="fill:#ebebeb"></rect><rect x="297.3" y="457.66" width="5.67" height="5.84" style="fill:#ebebeb"></rect><rect x="311.75" y="457.66" width="5.67" height="5.84" transform="translate(629.17 921.16) rotate(180)" style="fill:#ebebeb"></rect><rect x="311.75" y="447.74" width="5.67" height="5.84" transform="translate(629.17 901.32) rotate(180)" style="fill:#ebebeb"></rect><rect x="311.75" y="437.82" width="5.67" height="5.84" transform="translate(629.17 881.48) rotate(180)" style="fill:#ebebeb"></rect><rect x="311.75" y="427.9" width="5.67" height="5.84" transform="translate(629.17 861.64) rotate(180)" style="fill:#ebebeb"></rect><rect x="311.75" y="417.98" width="5.67" height="5.84" transform="translate(629.17 841.81) rotate(180)" style="fill:#ebebeb"></rect><rect x="311.75" y="408.06" width="5.67" height="5.84" transform="translate(629.17 821.97) rotate(180)" style="fill:#ebebeb"></rect><rect x="311.75" y="398.14" width="5.67" height="5.84" transform="translate(629.17 802.13) rotate(180)" style="fill:#ebebeb"></rect><rect x="311.75" y="388.22" width="5.67" height="5.84" transform="translate(629.17 782.29) rotate(180)" style="fill:#ebebeb"></rect><rect x="311.75" y="378.31" width="5.67" height="5.84" transform="translate(629.17 762.45) rotate(180)" style="fill:#ebebeb"></rect><rect x="311.75" y="368.39" width="5.67" height="5.84" transform="translate(629.17 742.62) rotate(180)" style="fill:#ebebeb"></rect><rect x="311.75" y="358.47" width="5.67" height="5.84" transform="translate(629.17 722.78) rotate(180)" style="fill:#ebebeb"></rect><rect x="311.75" y="348.55" width="5.67" height="5.84" transform="translate(629.17 702.94) rotate(180)" style="fill:#ebebeb"></rect><rect x="311.75" y="338.63" width="5.67" height="5.84" transform="translate(629.17 683.1) rotate(180)" style="fill:#ebebeb"></rect><rect x="311.75" y="328.71" width="5.67" height="5.84" transform="translate(629.17 663.26) rotate(180)" style="fill:#ebebeb"></rect><rect x="304.55" y="457.66" width="5.67" height="5.84" style="fill:#ebebeb"></rect><rect x="321.95" y="323.74" width="23.01" height="153.01" style="fill:#a6a6a6"></rect><rect x="337.91" y="457.66" width="4.69" height="5.84" transform="translate(680.5 921.16) rotate(180)" style="fill:#c7c7c7"></rect><rect x="331.92" y="457.66" width="4.69" height="5.84" transform="translate(668.52 921.16) rotate(180)" style="fill:#c7c7c7"></rect><rect x="337.91" y="447.74" width="4.69" height="5.84" transform="translate(680.5 901.32) rotate(180)" style="fill:#c7c7c7"></rect><rect x="331.92" y="447.74" width="4.69" height="5.84" transform="translate(668.52 901.32) rotate(180)" style="fill:#c7c7c7"></rect><rect x="337.91" y="437.82" width="4.69" height="5.84" transform="translate(680.5 881.48) rotate(180)" style="fill:#c7c7c7"></rect><rect x="331.92" y="437.82" width="4.69" height="5.84" transform="translate(668.52 881.48) rotate(180)" style="fill:#c7c7c7"></rect><rect x="337.91" y="427.9" width="4.69" height="5.84" transform="translate(680.5 861.64) rotate(180)" style="fill:#c7c7c7"></rect><rect x="331.92" y="427.9" width="4.69" height="5.84" transform="translate(668.52 861.64) rotate(180)" style="fill:#c7c7c7"></rect><rect x="337.91" y="417.98" width="4.69" height="5.84" transform="translate(680.5 841.81) rotate(180)" style="fill:#c7c7c7"></rect><rect x="331.92" y="417.98" width="4.69" height="5.84" transform="translate(668.52 841.81) rotate(180)" style="fill:#c7c7c7"></rect><rect x="337.91" y="408.06" width="4.69" height="5.84" transform="translate(680.5 821.97) rotate(180)" style="fill:#c7c7c7"></rect><rect x="331.92" y="408.06" width="4.69" height="5.84" transform="translate(668.52 821.97) rotate(180)" style="fill:#c7c7c7"></rect><rect x="337.91" y="398.14" width="4.69" height="5.84" transform="translate(680.5 802.13) rotate(180)" style="fill:#c7c7c7"></rect><rect x="331.92" y="398.14" width="4.69" height="5.84" transform="translate(668.52 802.13) rotate(180)" style="fill:#c7c7c7"></rect><rect x="337.91" y="388.22" width="4.69" height="5.84" transform="translate(680.5 782.29) rotate(180)" style="fill:#c7c7c7"></rect><rect x="331.92" y="388.22" width="4.69" height="5.84" transform="translate(668.52 782.29) rotate(180)" style="fill:#c7c7c7"></rect><rect x="337.91" y="378.31" width="4.69" height="5.84" transform="translate(680.5 762.45) rotate(180)" style="fill:#c7c7c7"></rect><rect x="331.92" y="378.31" width="4.69" height="5.84" transform="translate(668.52 762.45) rotate(180)" style="fill:#c7c7c7"></rect><rect x="337.91" y="368.39" width="4.69" height="5.84" transform="translate(680.5 742.62) rotate(180)" style="fill:#c7c7c7"></rect><rect x="331.92" y="368.39" width="4.69" height="5.84" transform="translate(668.52 742.62) rotate(180)" style="fill:#c7c7c7"></rect><rect x="337.91" y="358.47" width="4.69" height="5.84" transform="translate(680.5 722.78) rotate(180)" style="fill:#c7c7c7"></rect><rect x="331.92" y="358.47" width="4.69" height="5.84" transform="translate(668.52 722.78) rotate(180)" style="fill:#c7c7c7"></rect><rect x="337.91" y="348.55" width="4.69" height="5.84" transform="translate(680.5 702.94) rotate(180)" style="fill:#c7c7c7"></rect><rect x="331.92" y="348.55" width="4.69" height="5.84" transform="translate(668.52 702.94) rotate(180)" style="fill:#c7c7c7"></rect><rect x="337.91" y="338.63" width="4.69" height="5.84" transform="translate(680.5 683.1) rotate(180)" style="fill:#c7c7c7"></rect><rect x="331.92" y="338.63" width="4.69" height="5.84" transform="translate(668.52 683.1) rotate(180)" style="fill:#c7c7c7"></rect><rect x="337.91" y="328.71" width="4.69" height="5.84" transform="translate(680.5 663.26) rotate(180)" style="fill:#c7c7c7"></rect><rect x="325.97" y="328.71" width="4.69" height="5.84" style="fill:#c7c7c7"></rect><rect x="325.97" y="338.63" width="4.69" height="5.84" style="fill:#c7c7c7"></rect><rect x="325.97" y="348.55" width="4.69" height="5.84" style="fill:#c7c7c7"></rect><rect x="325.97" y="358.47" width="4.69" height="5.84" style="fill:#c7c7c7"></rect><rect x="325.97" y="368.39" width="4.69" height="5.84" style="fill:#c7c7c7"></rect><rect x="325.97" y="378.31" width="4.69" height="5.84" style="fill:#c7c7c7"></rect><rect x="325.97" y="388.22" width="4.69" height="5.84" style="fill:#c7c7c7"></rect><rect x="325.97" y="398.14" width="4.69" height="5.84" style="fill:#c7c7c7"></rect><rect x="325.97" y="408.06" width="4.69" height="5.84" style="fill:#c7c7c7"></rect><rect x="325.97" y="417.98" width="4.69" height="5.84" style="fill:#c7c7c7"></rect><rect x="325.97" y="427.9" width="4.69" height="5.84" style="fill:#c7c7c7"></rect><rect x="325.97" y="437.82" width="4.69" height="5.84" style="fill:#c7c7c7"></rect><rect x="325.97" y="447.74" width="4.69" height="5.84" style="fill:#c7c7c7"></rect><rect x="325.97" y="457.66" width="4.69" height="5.84" style="fill:#c7c7c7"></rect><rect x="331.92" y="328.71" width="4.69" height="5.84" transform="translate(668.52 663.26) rotate(180)" style="fill:#c7c7c7"></rect><rect x="202.48" y="315.49" width="34.53" height="161.26" style="fill:#ebebeb"></rect><rect x="201.65" y="311.96" width="35.36" height="3.53" style="fill:#c7c7c7"></rect><rect x="205.6" y="320.69" width="3.5" height="156.05" style="fill:#fff"></rect><rect x="211.8" y="320.69" width="3.5" height="156.05" style="fill:#fff"></rect><rect x="218" y="320.69" width="3.5" height="156.05" style="fill:#fff"></rect><rect x="224.2" y="320.69" width="3.5" height="156.05" style="fill:#fff"></rect><rect x="230.39" y="320.69" width="3.5" height="156.05" style="fill:#fff"></rect><rect x="205.6" y="325.16" width="3.5" height="6.97" style="fill:#ebebeb"></rect><rect x="211.8" y="325.16" width="3.5" height="6.97" style="fill:#ebebeb"></rect><rect x="218" y="325.16" width="3.5" height="6.97" style="fill:#ebebeb"></rect><rect x="224.2" y="325.16" width="3.5" height="6.97" style="fill:#ebebeb"></rect><rect x="230.39" y="325.16" width="3.5" height="6.97" style="fill:#ebebeb"></rect><rect x="205.6" y="336.48" width="3.5" height="6.97" style="fill:#ebebeb"></rect><rect x="211.8" y="336.48" width="3.5" height="6.97" style="fill:#ebebeb"></rect><rect x="218" y="336.48" width="3.5" height="6.97" style="fill:#ebebeb"></rect><rect x="224.2" y="336.48" width="3.5" height="6.97" style="fill:#ebebeb"></rect><rect x="230.39" y="336.48" width="3.5" height="6.97" style="fill:#ebebeb"></rect><rect x="205.6" y="347.81" width="3.5" height="6.97" style="fill:#ebebeb"></rect><rect x="211.8" y="347.81" width="3.5" height="6.97" style="fill:#ebebeb"></rect><rect x="218" y="347.81" width="3.5" height="6.97" style="fill:#ebebeb"></rect><rect x="224.2" y="347.81" width="3.5" height="6.97" style="fill:#ebebeb"></rect><rect x="230.39" y="347.81" width="3.5" height="6.97" style="fill:#ebebeb"></rect><rect x="205.6" y="359.14" width="3.5" height="6.97" style="fill:#ebebeb"></rect><rect x="211.8" y="359.14" width="3.5" height="6.97" style="fill:#ebebeb"></rect><rect x="218" y="359.14" width="3.5" height="6.97" style="fill:#ebebeb"></rect><rect x="224.2" y="359.14" width="3.5" height="6.97" style="fill:#ebebeb"></rect><rect x="230.39" y="359.14" width="3.5" height="6.97" style="fill:#ebebeb"></rect><rect x="205.6" y="370.46" width="3.5" height="6.97" style="fill:#ebebeb"></rect><rect x="211.8" y="370.46" width="3.5" height="6.97" style="fill:#ebebeb"></rect><rect x="218" y="370.46" width="3.5" height="6.97" style="fill:#ebebeb"></rect><rect x="224.2" y="370.46" width="3.5" height="6.97" style="fill:#ebebeb"></rect><rect x="230.39" y="370.46" width="3.5" height="6.97" style="fill:#ebebeb"></rect><rect x="205.6" y="381.79" width="3.5" height="6.97" style="fill:#ebebeb"></rect><rect x="211.8" y="381.79" width="3.5" height="6.97" style="fill:#ebebeb"></rect><rect x="218" y="381.79" width="3.5" height="6.97" style="fill:#ebebeb"></rect><rect x="224.2" y="381.79" width="3.5" height="6.97" style="fill:#ebebeb"></rect><rect x="230.39" y="381.79" width="3.5" height="6.97" style="fill:#ebebeb"></rect><rect x="205.6" y="393.12" width="3.5" height="6.97" style="fill:#ebebeb"></rect><rect x="211.8" y="393.12" width="3.5" height="6.97" style="fill:#ebebeb"></rect><rect x="218" y="393.12" width="3.5" height="6.97" style="fill:#ebebeb"></rect><rect x="224.2" y="393.12" width="3.5" height="6.97" style="fill:#ebebeb"></rect><rect x="230.39" y="393.12" width="3.5" height="6.97" style="fill:#ebebeb"></rect><rect x="205.6" y="404.44" width="3.5" height="6.97" style="fill:#ebebeb"></rect><rect x="211.8" y="404.44" width="3.5" height="6.97" style="fill:#ebebeb"></rect><rect x="218" y="404.44" width="3.5" height="6.97" style="fill:#ebebeb"></rect><rect x="224.2" y="404.44" width="3.5" height="6.97" style="fill:#ebebeb"></rect><rect x="230.39" y="404.44" width="3.5" height="6.97" style="fill:#ebebeb"></rect><rect x="205.6" y="415.77" width="3.5" height="6.97" style="fill:#ebebeb"></rect><rect x="211.8" y="415.77" width="3.5" height="6.97" style="fill:#ebebeb"></rect><rect x="218" y="415.77" width="3.5" height="6.97" style="fill:#ebebeb"></rect><rect x="224.2" y="415.77" width="3.5" height="6.97" style="fill:#ebebeb"></rect><rect x="230.39" y="415.77" width="3.5" height="6.97" style="fill:#ebebeb"></rect><rect x="205.6" y="427.1" width="3.5" height="6.97" style="fill:#ebebeb"></rect><rect x="211.8" y="427.1" width="3.5" height="6.97" style="fill:#ebebeb"></rect><rect x="218" y="427.1" width="3.5" height="6.97" style="fill:#ebebeb"></rect><rect x="224.2" y="427.1" width="3.5" height="6.97" style="fill:#ebebeb"></rect><rect x="230.39" y="427.1" width="3.5" height="6.97" style="fill:#ebebeb"></rect><rect x="205.6" y="438.42" width="3.5" height="6.97" style="fill:#ebebeb"></rect><rect x="211.8" y="438.42" width="3.5" height="6.97" style="fill:#ebebeb"></rect><rect x="218" y="438.42" width="3.5" height="6.97" style="fill:#ebebeb"></rect><rect x="224.2" y="438.42" width="3.5" height="6.97" style="fill:#ebebeb"></rect><rect x="230.39" y="438.42" width="3.5" height="6.97" style="fill:#ebebeb"></rect><rect x="205.6" y="449.75" width="3.5" height="6.97" style="fill:#ebebeb"></rect><rect x="211.8" y="449.75" width="3.5" height="6.97" style="fill:#ebebeb"></rect><rect x="218" y="449.75" width="3.5" height="6.97" style="fill:#ebebeb"></rect><rect x="224.2" y="449.75" width="3.5" height="6.97" style="fill:#ebebeb"></rect><rect x="230.39" y="449.75" width="3.5" height="6.97" style="fill:#ebebeb"></rect><rect x="205.6" y="461.08" width="3.5" height="6.97" style="fill:#ebebeb"></rect><rect x="211.8" y="461.08" width="3.5" height="6.97" style="fill:#ebebeb"></rect><rect x="218" y="461.08" width="3.5" height="6.97" style="fill:#ebebeb"></rect><rect x="224.2" y="461.08" width="3.5" height="6.97" style="fill:#ebebeb"></rect><rect x="230.39" y="461.08" width="3.5" height="6.97" style="fill:#ebebeb"></rect><rect x="205.6" y="472.4" width="3.5" height="4.34" style="fill:#ebebeb"></rect><rect x="211.8" y="472.4" width="3.5" height="4.34" style="fill:#ebebeb"></rect><rect x="218" y="472.4" width="3.5" height="4.34" style="fill:#ebebeb"></rect><rect x="224.2" y="472.4" width="3.5" height="4.34" style="fill:#ebebeb"></rect><rect x="230.39" y="472.4" width="3.5" height="4.34" style="fill:#ebebeb"></rect><rect x="237.01" y="315.49" width="22.17" height="161.26" style="fill:#dbdbdb"></rect><rect x="237.01" y="311.96" width="23.13" height="3.53" style="fill:#c7c7c7"></rect><rect x="240.14" y="320.69" width="3.5" height="156.05" style="fill:#c7c7c7"></rect><rect x="246.33" y="320.69" width="3.5" height="156.05" style="fill:#c7c7c7"></rect><rect x="252.53" y="320.69" width="3.5" height="156.05" style="fill:#c7c7c7"></rect><rect x="240.14" y="325.16" width="3.5" height="6.97" style="fill:#dbdbdb"></rect><rect x="246.33" y="325.16" width="3.5" height="6.97" style="fill:#dbdbdb"></rect><rect x="252.53" y="325.16" width="3.5" height="6.97" style="fill:#dbdbdb"></rect><rect x="240.14" y="336.48" width="3.5" height="6.97" style="fill:#dbdbdb"></rect><rect x="246.33" y="336.48" width="3.5" height="6.97" style="fill:#dbdbdb"></rect><rect x="252.53" y="336.48" width="3.5" height="6.97" style="fill:#dbdbdb"></rect><rect x="240.14" y="347.81" width="3.5" height="6.97" style="fill:#dbdbdb"></rect><rect x="246.33" y="347.81" width="3.5" height="6.97" style="fill:#dbdbdb"></rect><rect x="252.53" y="347.81" width="3.5" height="6.97" style="fill:#dbdbdb"></rect><rect x="240.14" y="359.14" width="3.5" height="6.97" style="fill:#dbdbdb"></rect><rect x="246.33" y="359.14" width="3.5" height="6.97" style="fill:#dbdbdb"></rect><rect x="252.53" y="359.14" width="3.5" height="6.97" style="fill:#dbdbdb"></rect><rect x="240.14" y="370.46" width="3.5" height="6.97" style="fill:#dbdbdb"></rect><rect x="246.33" y="370.46" width="3.5" height="6.97" style="fill:#dbdbdb"></rect><rect x="252.53" y="370.46" width="3.5" height="6.97" style="fill:#dbdbdb"></rect><rect x="240.14" y="381.79" width="3.5" height="6.97" style="fill:#dbdbdb"></rect><rect x="246.33" y="381.79" width="3.5" height="6.97" style="fill:#dbdbdb"></rect><rect x="252.53" y="381.79" width="3.5" height="6.97" style="fill:#dbdbdb"></rect><rect x="240.14" y="393.12" width="3.5" height="6.97" style="fill:#dbdbdb"></rect><rect x="246.33" y="393.12" width="3.5" height="6.97" style="fill:#dbdbdb"></rect><rect x="252.53" y="393.12" width="3.5" height="6.97" style="fill:#dbdbdb"></rect><rect x="240.14" y="404.44" width="3.5" height="6.97" style="fill:#dbdbdb"></rect><rect x="246.33" y="404.44" width="3.5" height="6.97" style="fill:#dbdbdb"></rect><rect x="252.53" y="404.44" width="3.5" height="6.97" style="fill:#dbdbdb"></rect><rect x="240.14" y="415.77" width="3.5" height="6.97" style="fill:#dbdbdb"></rect><rect x="246.33" y="415.77" width="3.5" height="6.97" style="fill:#dbdbdb"></rect><rect x="252.53" y="415.77" width="3.5" height="6.97" style="fill:#dbdbdb"></rect><rect x="240.14" y="427.1" width="3.5" height="6.97" style="fill:#dbdbdb"></rect><rect x="246.33" y="427.1" width="3.5" height="6.97" style="fill:#dbdbdb"></rect><rect x="252.53" y="427.1" width="3.5" height="6.97" style="fill:#dbdbdb"></rect><rect x="240.14" y="438.42" width="3.5" height="6.97" style="fill:#dbdbdb"></rect><rect x="246.33" y="438.42" width="3.5" height="6.97" style="fill:#dbdbdb"></rect><rect x="252.53" y="438.42" width="3.5" height="6.97" style="fill:#dbdbdb"></rect><rect x="240.14" y="449.75" width="3.5" height="6.97" style="fill:#dbdbdb"></rect><rect x="246.33" y="449.75" width="3.5" height="6.97" style="fill:#dbdbdb"></rect><rect x="252.53" y="449.75" width="3.5" height="6.97" style="fill:#dbdbdb"></rect><rect x="240.14" y="461.08" width="3.5" height="6.97" style="fill:#dbdbdb"></rect><rect x="246.33" y="461.08" width="3.5" height="6.97" style="fill:#dbdbdb"></rect><rect x="252.53" y="461.08" width="3.5" height="6.97" style="fill:#dbdbdb"></rect><rect x="240.14" y="472.4" width="3.5" height="4.34" style="fill:#dbdbdb"></rect><rect x="246.33" y="472.4" width="3.5" height="4.34" style="fill:#dbdbdb"></rect><rect x="252.53" y="472.4" width="3.5" height="4.34" style="fill:#dbdbdb"></rect><rect x="46.66" y="374.75" width="34.38" height="102" style="fill:#ebebeb"></rect><rect x="51.55" y="366.11" width="29.49" height="8.65" style="fill:#c7c7c7"></rect><rect x="50.43" y="379.27" width="26.84" height="97.48" style="fill:#dbdbdb"></rect><rect x="50.43" y="388.57" width="26.84" height="2.3" style="fill:#fff"></rect><rect x="50.43" y="398.11" width="26.84" height="2.3" style="fill:#fff"></rect><rect x="50.43" y="407.65" width="26.84" height="2.3" style="fill:#fff"></rect><rect x="50.43" y="417.2" width="26.84" height="2.3" style="fill:#fff"></rect><rect x="50.43" y="426.74" width="26.84" height="2.3" style="fill:#fff"></rect><rect x="50.43" y="436.28" width="26.84" height="2.3" style="fill:#fff"></rect><rect x="50.43" y="445.82" width="26.84" height="2.3" style="fill:#fff"></rect><rect x="50.43" y="455.36" width="26.84" height="2.3" style="fill:#fff"></rect><rect x="50.43" y="464.9" width="26.84" height="2.3" style="fill:#fff"></rect><rect x="50.43" y="474.45" width="26.84" height="2.3" style="fill:#fff"></rect><rect x="81.04" y="374.75" width="21.54" height="102" style="fill:#dbdbdb"></rect><rect x="81.04" y="366.11" width="18.3" height="8.65" style="fill:#a6a6a6"></rect><rect x="84.01" y="379.27" width="16.56" height="97.48" style="fill:#c7c7c7"></rect><rect x="84.01" y="388.57" width="16.56" height="2.3" style="fill:#fff"></rect><rect x="84.01" y="398.11" width="16.56" height="2.3" style="fill:#fff"></rect><rect x="84.01" y="407.65" width="16.56" height="2.3" style="fill:#fff"></rect><rect x="84.01" y="417.2" width="16.56" height="2.3" style="fill:#fff"></rect><rect x="84.01" y="426.74" width="16.56" height="2.3" style="fill:#fff"></rect><rect x="84.01" y="436.28" width="16.56" height="2.3" style="fill:#fff"></rect><rect x="84.01" y="445.82" width="16.56" height="2.3" style="fill:#fff"></rect><rect x="84.01" y="455.36" width="16.56" height="2.3" style="fill:#fff"></rect><rect x="84.01" y="464.9" width="16.56" height="2.3" style="fill:#fff"></rect><rect x="84.01" y="474.45" width="16.56" height="2.3" style="fill:#fff"></rect><rect x="400.68" y="366.83" width="30.95" height="109.92" style="fill:#dbdbdb"></rect><rect x="405.55" y="372.85" width="5.48" height="4.26" style="fill:#c7c7c7"></rect><rect x="405.55" y="381.95" width="5.48" height="4.26" style="fill:#c7c7c7"></rect><rect x="405.55" y="391.04" width="5.48" height="4.26" style="fill:#c7c7c7"></rect><rect x="405.55" y="400.14" width="5.48" height="4.26" style="fill:#c7c7c7"></rect><rect x="405.55" y="409.24" width="5.48" height="4.26" style="fill:#c7c7c7"></rect><rect x="405.55" y="418.34" width="5.48" height="4.26" style="fill:#c7c7c7"></rect><rect x="405.55" y="427.43" width="5.48" height="4.26" style="fill:#c7c7c7"></rect><rect x="413.43" y="372.85" width="5.48" height="4.26" style="fill:#c7c7c7"></rect><rect x="413.43" y="381.95" width="5.48" height="4.26" style="fill:#c7c7c7"></rect><rect x="413.43" y="391.04" width="5.48" height="4.26" style="fill:#c7c7c7"></rect><rect x="413.43" y="400.14" width="5.48" height="4.26" style="fill:#c7c7c7"></rect><rect x="413.43" y="409.24" width="5.48" height="4.26" style="fill:#c7c7c7"></rect><rect x="413.43" y="418.34" width="5.48" height="4.26" style="fill:#c7c7c7"></rect><rect x="413.43" y="427.43" width="5.48" height="4.26" style="fill:#c7c7c7"></rect><rect x="421.28" y="372.85" width="5.48" height="4.26" style="fill:#c7c7c7"></rect><rect x="421.28" y="381.95" width="5.48" height="4.26" style="fill:#c7c7c7"></rect><rect x="421.28" y="391.04" width="5.48" height="4.26" style="fill:#c7c7c7"></rect><rect x="421.28" y="400.14" width="5.48" height="4.26" style="fill:#c7c7c7"></rect><rect x="421.28" y="409.24" width="5.48" height="4.26" style="fill:#c7c7c7"></rect><rect x="421.28" y="418.34" width="5.48" height="4.26" style="fill:#c7c7c7"></rect><rect x="421.28" y="427.43" width="5.48" height="4.26" style="fill:#c7c7c7"></rect><rect x="405.55" y="436.53" width="5.48" height="4.26" style="fill:#c7c7c7"></rect><rect x="413.43" y="436.53" width="5.48" height="4.26" style="fill:#c7c7c7"></rect><rect x="421.28" y="436.53" width="5.48" height="4.26" style="fill:#c7c7c7"></rect><rect x="405.55" y="445.63" width="5.48" height="4.26" style="fill:#c7c7c7"></rect><rect x="413.43" y="445.63" width="5.48" height="4.26" style="fill:#c7c7c7"></rect><rect x="421.28" y="445.63" width="5.48" height="4.26" style="fill:#c7c7c7"></rect><rect x="405.55" y="454.73" width="5.48" height="4.26" style="fill:#c7c7c7"></rect><rect x="413.43" y="454.73" width="5.48" height="4.26" style="fill:#c7c7c7"></rect><rect x="421.28" y="454.73" width="5.48" height="4.26" style="fill:#c7c7c7"></rect><rect x="405.55" y="463.82" width="5.48" height="4.26" style="fill:#c7c7c7"></rect><rect x="413.43" y="463.82" width="5.48" height="4.26" style="fill:#c7c7c7"></rect><rect x="421.28" y="463.82" width="5.48" height="4.26" style="fill:#c7c7c7"></rect><rect x="431.63" y="366.83" width="21.71" height="109.92" style="fill:#a6a6a6"></rect><rect x="446.66" y="426.75" width="4.46" height="4.26" transform="translate(897.78 857.77) rotate(180)" style="fill:#c7c7c7"></rect><rect x="446.66" y="417.66" width="4.46" height="4.26" transform="translate(897.78 839.57) rotate(180)" style="fill:#c7c7c7"></rect><rect x="446.66" y="408.56" width="4.46" height="4.26" transform="translate(897.78 821.38) rotate(180)" style="fill:#c7c7c7"></rect><rect x="446.66" y="399.46" width="4.46" height="4.26" transform="translate(897.78 803.18) rotate(180)" style="fill:#c7c7c7"></rect><rect x="446.66" y="390.36" width="4.46" height="4.26" transform="translate(897.78 784.99) rotate(180)" style="fill:#c7c7c7"></rect><rect x="446.66" y="381.27" width="4.46" height="4.26" transform="translate(897.78 766.79) rotate(180)" style="fill:#c7c7c7"></rect><rect x="446.66" y="372.17" width="4.46" height="4.26" transform="translate(897.78 748.6) rotate(180)" style="fill:#c7c7c7"></rect><rect x="440.25" y="426.75" width="4.46" height="4.26" transform="translate(884.95 857.77) rotate(180)" style="fill:#c7c7c7"></rect><rect x="440.25" y="417.66" width="4.46" height="4.26" transform="translate(884.95 839.57) rotate(180)" style="fill:#c7c7c7"></rect><rect x="440.25" y="408.56" width="4.46" height="4.26" transform="translate(884.95 821.38) rotate(180)" style="fill:#c7c7c7"></rect><rect x="440.25" y="399.46" width="4.46" height="4.26" transform="translate(884.95 803.18) rotate(180)" style="fill:#c7c7c7"></rect><rect x="440.25" y="390.36" width="4.46" height="4.26" transform="translate(884.95 784.99) rotate(180)" style="fill:#c7c7c7"></rect><rect x="440.25" y="381.27" width="4.46" height="4.26" transform="translate(884.95 766.79) rotate(180)" style="fill:#c7c7c7"></rect><rect x="440.25" y="372.17" width="4.46" height="4.26" transform="translate(884.95 748.6) rotate(180)" style="fill:#c7c7c7"></rect><rect x="433.85" y="426.75" width="4.46" height="4.26" transform="translate(872.16 857.77) rotate(180)" style="fill:#c7c7c7"></rect><rect x="433.85" y="417.66" width="4.46" height="4.26" transform="translate(872.16 839.57) rotate(180)" style="fill:#c7c7c7"></rect><rect x="446.66" y="435.85" width="4.46" height="4.26" transform="translate(897.78 875.96) rotate(180)" style="fill:#c7c7c7"></rect><rect x="440.25" y="435.85" width="4.46" height="4.26" transform="translate(884.95 875.96) rotate(180)" style="fill:#c7c7c7"></rect><rect x="433.85" y="435.85" width="4.46" height="4.26" transform="translate(872.16 875.96) rotate(180)" style="fill:#c7c7c7"></rect><rect x="446.66" y="444.95" width="4.46" height="4.26" transform="translate(897.78 894.16) rotate(180)" style="fill:#c7c7c7"></rect><rect x="440.25" y="444.95" width="4.46" height="4.26" transform="translate(884.95 894.16) rotate(180)" style="fill:#c7c7c7"></rect><rect x="433.85" y="444.95" width="4.46" height="4.26" transform="translate(872.16 894.16) rotate(180)" style="fill:#c7c7c7"></rect><rect x="446.66" y="454.05" width="4.46" height="4.26" transform="translate(897.78 912.35) rotate(180)" style="fill:#c7c7c7"></rect><rect x="440.25" y="454.05" width="4.46" height="4.26" transform="translate(884.95 912.35) rotate(180)" style="fill:#c7c7c7"></rect><rect x="433.85" y="454.05" width="4.46" height="4.26" transform="translate(872.16 912.35) rotate(180)" style="fill:#c7c7c7"></rect><rect x="446.66" y="463.14" width="4.46" height="4.26" transform="translate(897.78 930.54) rotate(180)" style="fill:#c7c7c7"></rect><rect x="440.25" y="463.14" width="4.46" height="4.26" transform="translate(884.95 930.54) rotate(180)" style="fill:#c7c7c7"></rect><rect x="433.85" y="463.14" width="4.46" height="4.26" transform="translate(872.16 930.54) rotate(180)" style="fill:#c7c7c7"></rect><rect x="433.85" y="408.56" width="4.46" height="4.26" transform="translate(872.16 821.38) rotate(180)" style="fill:#c7c7c7"></rect><rect x="433.85" y="399.46" width="4.46" height="4.26" transform="translate(872.16 803.18) rotate(180)" style="fill:#c7c7c7"></rect><rect x="433.85" y="390.36" width="4.46" height="4.26" transform="translate(872.16 784.99) rotate(180)" style="fill:#c7c7c7"></rect><rect x="433.85" y="381.27" width="4.46" height="4.26" transform="translate(872.16 766.79) rotate(180)" style="fill:#c7c7c7"></rect><rect x="433.85" y="372.17" width="4.46" height="4.26" transform="translate(872.16 748.6) rotate(180)" style="fill:#c7c7c7"></rect><rect x="348.23" y="348.55" width="18.36" height="21.69" style="fill:#dbdbdb"></rect><rect x="366.6" y="348.55" width="11.64" height="22.49" style="fill:#c7c7c7"></rect><rect x="367.46" y="358.13" width="11.56" height="12.91" style="fill:#dbdbdb"></rect><rect x="379.02" y="358.13" width="7.21" height="12.91" style="fill:#c7c7c7"></rect><rect x="341.19" y="368.83" width="29.69" height="107.92" style="fill:#ebebeb"></rect><rect x="344.59" y="373.47" width="9.34" height="3.82" style="fill:#fff"></rect><rect x="356.53" y="373.47" width="9.34" height="3.82" style="fill:#fff"></rect><rect x="344.59" y="379.95" width="9.34" height="3.82" style="fill:#fff"></rect><rect x="356.53" y="379.95" width="9.34" height="3.82" style="fill:#fff"></rect><rect x="344.59" y="386.43" width="9.34" height="3.82" style="fill:#fff"></rect><rect x="356.53" y="386.43" width="9.34" height="3.82" style="fill:#fff"></rect><rect x="344.59" y="392.9" width="9.34" height="3.82" style="fill:#fff"></rect><rect x="356.53" y="392.9" width="9.34" height="3.82" style="fill:#fff"></rect><rect x="344.59" y="399.38" width="9.34" height="3.82" style="fill:#fff"></rect><rect x="356.53" y="399.38" width="9.34" height="3.82" style="fill:#fff"></rect><rect x="344.59" y="405.86" width="9.34" height="3.82" style="fill:#fff"></rect><rect x="356.53" y="405.86" width="9.34" height="3.82" style="fill:#fff"></rect><rect x="344.59" y="412.34" width="9.34" height="3.82" style="fill:#fff"></rect><rect x="356.53" y="412.34" width="9.34" height="3.82" style="fill:#fff"></rect><rect x="344.59" y="418.81" width="9.34" height="3.82" style="fill:#fff"></rect><rect x="356.53" y="418.81" width="9.34" height="3.82" style="fill:#fff"></rect><rect x="344.59" y="425.29" width="9.34" height="3.82" style="fill:#fff"></rect><rect x="356.53" y="425.29" width="9.34" height="3.82" style="fill:#fff"></rect><rect x="344.59" y="431.77" width="9.34" height="3.82" style="fill:#fff"></rect><rect x="356.53" y="431.77" width="9.34" height="3.82" style="fill:#fff"></rect><rect x="344.59" y="438.25" width="9.34" height="3.82" style="fill:#fff"></rect><rect x="356.53" y="438.25" width="9.34" height="3.82" style="fill:#fff"></rect><rect x="344.59" y="444.72" width="9.34" height="3.82" style="fill:#fff"></rect><rect x="356.53" y="444.72" width="9.34" height="3.82" style="fill:#fff"></rect><rect x="344.59" y="451.2" width="9.34" height="3.82" style="fill:#fff"></rect><rect x="356.53" y="451.2" width="9.34" height="3.82" style="fill:#fff"></rect><rect x="344.59" y="457.68" width="9.34" height="3.82" style="fill:#fff"></rect><rect x="356.53" y="457.68" width="9.34" height="3.82" style="fill:#fff"></rect><rect x="370.89" y="368.83" width="24.06" height="107.92" style="fill:#c7c7c7"></rect><rect x="384.87" y="457.68" width="7.67" height="3.82" transform="translate(777.4 919.17) rotate(180)" style="fill:#ebebeb"></rect><rect x="375.06" y="457.68" width="7.67" height="3.82" transform="translate(757.79 919.17) rotate(180)" style="fill:#ebebeb"></rect><rect x="384.87" y="451.2" width="7.67" height="3.82" transform="translate(777.4 906.22) rotate(180)" style="fill:#ebebeb"></rect><rect x="375.06" y="451.2" width="7.67" height="3.82" transform="translate(757.79 906.22) rotate(180)" style="fill:#ebebeb"></rect><rect x="384.87" y="444.72" width="7.67" height="3.82" transform="translate(777.4 893.26) rotate(180)" style="fill:#ebebeb"></rect><rect x="375.06" y="444.72" width="7.67" height="3.82" transform="translate(757.79 893.26) rotate(180)" style="fill:#ebebeb"></rect><rect x="384.87" y="438.25" width="7.67" height="3.82" transform="translate(777.4 880.31) rotate(180)" style="fill:#ebebeb"></rect><rect x="375.06" y="438.25" width="7.67" height="3.82" transform="translate(757.79 880.31) rotate(180)" style="fill:#ebebeb"></rect><rect x="384.87" y="431.77" width="7.67" height="3.82" transform="translate(777.4 867.35) rotate(180)" style="fill:#ebebeb"></rect><rect x="375.06" y="431.77" width="7.67" height="3.82" transform="translate(757.79 867.35) rotate(180)" style="fill:#ebebeb"></rect><rect x="384.87" y="425.29" width="7.67" height="3.82" transform="translate(777.4 854.4) rotate(180)" style="fill:#ebebeb"></rect><rect x="375.06" y="425.29" width="7.67" height="3.82" transform="translate(757.79 854.4) rotate(180)" style="fill:#ebebeb"></rect><rect x="384.87" y="418.81" width="7.67" height="3.82" transform="translate(777.4 841.44) rotate(180)" style="fill:#ebebeb"></rect><rect x="375.06" y="418.81" width="7.67" height="3.82" transform="translate(757.79 841.44) rotate(180)" style="fill:#ebebeb"></rect><rect x="384.87" y="412.34" width="7.67" height="3.82" transform="translate(777.4 828.49) rotate(180)" style="fill:#ebebeb"></rect><rect x="375.06" y="412.34" width="7.67" height="3.82" transform="translate(757.79 828.49) rotate(180)" style="fill:#ebebeb"></rect><rect x="384.87" y="405.86" width="7.67" height="3.82" transform="translate(777.4 815.53) rotate(180)" style="fill:#ebebeb"></rect><rect x="375.06" y="405.86" width="7.67" height="3.82" transform="translate(757.79 815.53) rotate(180)" style="fill:#ebebeb"></rect><rect x="384.87" y="399.38" width="7.67" height="3.82" transform="translate(777.4 802.58) rotate(180)" style="fill:#ebebeb"></rect><rect x="375.06" y="399.38" width="7.67" height="3.82" transform="translate(757.79 802.58) rotate(180)" style="fill:#ebebeb"></rect><rect x="384.87" y="392.9" width="7.67" height="3.82" transform="translate(777.4 789.62) rotate(180)" style="fill:#ebebeb"></rect><rect x="375.06" y="392.9" width="7.67" height="3.82" transform="translate(757.79 789.62) rotate(180)" style="fill:#ebebeb"></rect><rect x="384.87" y="386.43" width="7.67" height="3.82" transform="translate(777.4 776.67) rotate(180)" style="fill:#ebebeb"></rect><rect x="375.06" y="386.43" width="7.67" height="3.82" transform="translate(757.79 776.67) rotate(180)" style="fill:#ebebeb"></rect><rect x="384.87" y="379.95" width="7.67" height="3.82" transform="translate(777.4 763.71) rotate(180)" style="fill:#ebebeb"></rect><rect x="375.06" y="379.95" width="7.67" height="3.82" transform="translate(757.79 763.71) rotate(180)" style="fill:#ebebeb"></rect><rect x="384.87" y="373.47" width="7.67" height="3.82" transform="translate(777.4 750.76) rotate(180)" style="fill:#ebebeb"></rect><rect x="375.06" y="373.47" width="7.67" height="3.82" transform="translate(757.79 750.76) rotate(180)" style="fill:#ebebeb"></rect><rect x="146.3" y="406.43" width="35.02" height="70.32" style="fill:#c7c7c7"></rect><rect x="151.81" y="412.51" width="6.2" height="4.31" style="fill:#dbdbdb"></rect><rect x="151.81" y="421.72" width="6.2" height="4.31" style="fill:#dbdbdb"></rect><rect x="151.81" y="430.92" width="6.2" height="4.31" style="fill:#dbdbdb"></rect><rect x="151.81" y="440.12" width="6.2" height="4.31" style="fill:#dbdbdb"></rect><rect x="151.81" y="449.32" width="6.2" height="4.31" style="fill:#dbdbdb"></rect><rect x="151.81" y="458.53" width="6.2" height="4.31" style="fill:#dbdbdb"></rect><rect x="151.81" y="467.73" width="6.2" height="4.31" style="fill:#dbdbdb"></rect><rect x="160.73" y="412.51" width="6.2" height="4.31" style="fill:#dbdbdb"></rect><rect x="160.73" y="421.72" width="6.2" height="4.31" style="fill:#dbdbdb"></rect><rect x="160.73" y="430.92" width="6.2" height="4.31" style="fill:#dbdbdb"></rect><rect x="160.73" y="440.12" width="6.2" height="4.31" style="fill:#dbdbdb"></rect><rect x="160.73" y="449.32" width="6.2" height="4.31" style="fill:#dbdbdb"></rect><rect x="160.73" y="458.53" width="6.2" height="4.31" style="fill:#dbdbdb"></rect><rect x="160.73" y="467.73" width="6.2" height="4.31" style="fill:#dbdbdb"></rect><rect x="169.62" y="412.51" width="6.2" height="4.31" style="fill:#dbdbdb"></rect><rect x="169.62" y="421.72" width="6.2" height="4.31" style="fill:#dbdbdb"></rect><rect x="169.62" y="430.92" width="6.2" height="4.31" style="fill:#dbdbdb"></rect><rect x="169.62" y="440.12" width="6.2" height="4.31" style="fill:#dbdbdb"></rect><rect x="169.62" y="449.32" width="6.2" height="4.31" style="fill:#dbdbdb"></rect><rect x="169.62" y="458.53" width="6.2" height="4.31" style="fill:#dbdbdb"></rect><rect x="169.62" y="467.73" width="6.2" height="4.31" style="fill:#dbdbdb"></rect><rect x="158.01" y="399.1" width="23.32" height="7.33" style="fill:#dbdbdb"></rect><rect x="166.54" y="394.57" width="14.78" height="4.54" style="fill:#ebebeb"></rect><rect x="181.33" y="406.43" width="24.57" height="70.32" style="fill:#a6a6a6"></rect><rect x="198.34" y="467.04" width="5.05" height="4.31" transform="translate(401.72 938.39) rotate(180)" style="fill:#c7c7c7"></rect><rect x="198.34" y="457.84" width="5.05" height="4.31" transform="translate(401.72 919.99) rotate(180)" style="fill:#c7c7c7"></rect><rect x="198.34" y="448.64" width="5.05" height="4.31" transform="translate(401.72 901.58) rotate(180)" style="fill:#c7c7c7"></rect><rect x="198.34" y="439.43" width="5.05" height="4.31" transform="translate(401.72 883.18) rotate(180)" style="fill:#c7c7c7"></rect><rect x="198.34" y="430.23" width="5.05" height="4.31" transform="translate(401.72 864.77) rotate(180)" style="fill:#c7c7c7"></rect><rect x="198.34" y="421.03" width="5.05" height="4.31" transform="translate(401.72 846.37) rotate(180)" style="fill:#c7c7c7"></rect><rect x="198.34" y="411.83" width="5.05" height="4.31" transform="translate(401.72 827.96) rotate(180)" style="fill:#c7c7c7"></rect><rect x="191.08" y="467.04" width="5.05" height="4.31" transform="translate(387.21 938.39) rotate(180)" style="fill:#c7c7c7"></rect><rect x="191.08" y="457.84" width="5.05" height="4.31" transform="translate(387.21 919.99) rotate(180)" style="fill:#c7c7c7"></rect><rect x="191.08" y="448.64" width="5.05" height="4.31" transform="translate(387.21 901.58) rotate(180)" style="fill:#c7c7c7"></rect><rect x="191.08" y="439.43" width="5.05" height="4.31" transform="translate(387.21 883.18) rotate(180)" style="fill:#c7c7c7"></rect><rect x="191.08" y="430.23" width="5.05" height="4.31" transform="translate(387.21 864.77) rotate(180)" style="fill:#c7c7c7"></rect><rect x="191.08" y="421.03" width="5.05" height="4.31" transform="translate(387.21 846.37) rotate(180)" style="fill:#c7c7c7"></rect><rect x="191.08" y="411.83" width="5.05" height="4.31" transform="translate(387.21 827.96) rotate(180)" style="fill:#c7c7c7"></rect><rect x="183.84" y="467.04" width="5.05" height="4.31" transform="translate(372.73 938.39) rotate(180)" style="fill:#c7c7c7"></rect><rect x="183.84" y="457.84" width="5.05" height="4.31" transform="translate(372.73 919.99) rotate(180)" style="fill:#c7c7c7"></rect><rect x="183.84" y="448.64" width="5.05" height="4.31" transform="translate(372.73 901.58) rotate(180)" style="fill:#c7c7c7"></rect><rect x="183.84" y="439.43" width="5.05" height="4.31" transform="translate(372.73 883.18) rotate(180)" style="fill:#c7c7c7"></rect><rect x="183.84" y="430.23" width="5.05" height="4.31" transform="translate(372.73 864.77) rotate(180)" style="fill:#c7c7c7"></rect><rect x="183.84" y="421.03" width="5.05" height="4.31" transform="translate(372.73 846.37) rotate(180)" style="fill:#c7c7c7"></rect><rect x="183.84" y="411.83" width="5.05" height="4.31" transform="translate(372.73 827.96) rotate(180)" style="fill:#c7c7c7"></rect><rect x="181.33" y="399.1" width="20.85" height="7.33" style="fill:#c7c7c7"></rect><rect x="181.33" y="394.57" width="11.3" height="4.54" style="fill:#dbdbdb"></rect><path d="M431.28,319.25a3.18,3.18,0,0,1-3.35,0c-.28-.17-.57-.33-.86-.48s-.59-.31-.89-.45a3.21,3.21,0,0,1-1.87-2.77l-.13-4.12-13.42.41.12,4.12a3.19,3.19,0,0,1-1.68,2.9,18.64,18.64,0,0,0-1.71,1.05,3.18,3.18,0,0,1-3.33.21l-3.62-1.94L394.19,330l3.62,1.94a3.22,3.22,0,0,1,1.67,2.9,19,19,0,0,0,.06,2,3.19,3.19,0,0,1-1.48,3l-3.5,2.17,7.08,11.41,3.52-2.18a3.21,3.21,0,0,1,3.34,0c.28.17.57.33.86.49s.58.3.88.44a3.2,3.2,0,0,1,1.87,2.78l.13,4.13,13.42-.42-.13-4.11a3.18,3.18,0,0,1,1.69-2.9,17.79,17.79,0,0,0,1.7-1.06,3.22,3.22,0,0,1,3.34-.21l3.62,1.94,6.35-11.84-3.62-1.94a3.21,3.21,0,0,1-1.67-2.9,16.87,16.87,0,0,0-.06-2,3.18,3.18,0,0,1,1.48-3l3.5-2.17-7.08-11.41Zm-3.37,21.2a11,11,0,1,1-4.5-14.9A11,11,0,0,1,427.91,340.45Z" style="fill:#ebebeb"></path><path d="M96.46,262.85l-.14-4.63a2.71,2.71,0,0,0-1.59-2.34c-.3-.14-.61-.3-.91-.46s-.59-.32-.88-.5a2.68,2.68,0,0,0-2.81,0l-3.95,2.45-7.6-12.26,3.92-2.44a2.7,2.7,0,0,0,1.25-2.54,20.06,20.06,0,0,1-.07-2,2.7,2.7,0,0,0-1.4-2.45l-4.07-2.18L85,220.7l4.06,2.18a2.71,2.71,0,0,0,2.81-.18,17.51,17.51,0,0,1,1.75-1.08,2.71,2.71,0,0,0,1.43-2.45l-.15-4.62,14.43-.44.14,4.62a2.7,2.7,0,0,0,1.58,2.33l.92.46c.3.16.59.33.88.5a2.7,2.7,0,0,0,2.83,0l3.92-2.44,7.61,12.27-3.92,2.43a2.68,2.68,0,0,0-1.25,2.54,20.16,20.16,0,0,1,.07,2.06,2.65,2.65,0,0,0,1.4,2.44l4.06,2.18-6.82,12.72-4.06-2.17a2.69,2.69,0,0,0-2.82.18,17.6,17.6,0,0,1-1.75,1.09,2.66,2.66,0,0,0-1.42,2.44l.14,4.61Zm-5-9.34a3.82,3.82,0,0,1,2,.56c.27.16.55.32.84.47l.86.44a3.71,3.71,0,0,1,2.16,3.21l.1,3.63,12.43-.39-.11-3.61a3.67,3.67,0,0,1,1.94-3.35,19.06,19.06,0,0,0,1.66-1,3.67,3.67,0,0,1,3.86-.24l3.18,1.7,5.88-11-3.18-1.71a3.67,3.67,0,0,1-1.93-3.34,18.34,18.34,0,0,0-.07-2,3.68,3.68,0,0,1,1.72-3.47l3.07-1.9L119.32,221l-3.07,1.91a3.71,3.71,0,0,1-3.88,0q-.41-.25-.84-.48l-.86-.44a3.68,3.68,0,0,1-2.16-3.2l-.11-3.62L96,215.52l.12,3.62a3.7,3.7,0,0,1-2,3.35,17.66,17.66,0,0,0-1.66,1,3.69,3.69,0,0,1-3.85.24l-3.19-1.71-5.87,11,3.18,1.71a3.68,3.68,0,0,1,1.93,3.35c0,.64,0,1.3.06,1.94A3.68,3.68,0,0,1,83,243.49L80,245.4,86.51,256,89.6,254A3.65,3.65,0,0,1,91.49,253.51ZM102.9,250a11.36,11.36,0,0,1-5.42-1.37A11.5,11.5,0,1,1,102.9,250Zm0-22a10.63,10.63,0,0,0-3.05.45,10.51,10.51,0,1,0,12.3,15h0A10.51,10.51,0,0,0,102.93,228Z" style="fill:#ebebeb"></path><path d="M88.68,208.71a2.24,2.24,0,0,1-1.1-2.08c0-.23,0-.46,0-.69s0-.47,0-.7a2.24,2.24,0,0,1,1.1-2.07l2.5-1.44-4.7-8.15L84,195a2.24,2.24,0,0,1-2.34-.08,11.32,11.32,0,0,0-1.22-.7,2.25,2.25,0,0,1-1.23-2v-2.88H69.77v2.88a2.26,2.26,0,0,1-1.24,2,11.18,11.18,0,0,0-1.21.7A2.26,2.26,0,0,1,65,195l-2.5-1.44-4.7,8.15,2.51,1.45a2.24,2.24,0,0,1,1.09,2.07c0,.23,0,.46,0,.69s0,.46,0,.69a2.24,2.24,0,0,1-1.1,2.08l-2.5,1.44,4.7,8.15L65,216.86a2.26,2.26,0,0,1,2.35.08,13.38,13.38,0,0,0,1.22.71,2.23,2.23,0,0,1,1.24,2v2.88h9.41v-2.88a2.21,2.21,0,0,1,1.24-2c.42-.22.82-.45,1.22-.71a2.24,2.24,0,0,1,2.34-.08l2.5,1.44,4.7-8.15Zm-14.2,4.94a7.71,7.71,0,1,1,7.7-7.71A7.72,7.72,0,0,1,74.48,213.65Z" style="fill:#ebebeb"></path><path d="M381.39,323.92H367.94l-.72-9.21a36.37,36.37,0,0,1-12.61-5.13l-7.36,6.29-9.52-9.52,6.18-7.2a36.67,36.67,0,0,1-5.41-12.34l-9.7-.76V272.58l9.28-.71A36.58,36.58,0,0,1,342.92,259l-6.09-7.11,9.52-9.51,6.69,5.7A36.65,36.65,0,0,1,366,242.2l.68-8.74h13.46l.64,8.21a36.37,36.37,0,0,1,13.72,5.23l6.32-5.41,9.52,9.52-5.19,6.07a36.63,36.63,0,0,1,5.89,13.6l8.24.64v13.46l-8.14.64a36.32,36.32,0,0,1-5.53,13.46l5.63,6.58L401.7,315l-6.6-5.65a36.67,36.67,0,0,1-13,5.38Zm-12.53-1h11.61l.7-9.05.38-.07a35.34,35.34,0,0,0,13.3-5.51l.13-.08h.34l.15.12,6.18,5.29,8.21-8.21L404.33,299l.22-.31a35.52,35.52,0,0,0,5.66-13.78l.07-.37,8-.63V272.25l-8.08-.63-.07-.38a35.54,35.54,0,0,0-6-13.9l-.23-.32,5.1-6-8.21-8.21-6.19,5.3-.31-.2a35.43,35.43,0,0,0-14-5.35l-.39-.06-.64-8.08h-11.6l-.67,8.55-.36.08a35.73,35.73,0,0,0-13.25,6l-.32.24-6.59-5.62L338.19,252l6,7-.2.31a35.48,35.48,0,0,0-5,13.18l-.06.39-9.14.7v11.62l9.52.74.08.36A35.44,35.44,0,0,0,345,298.9l.22.31-6.08,7.09,8.21,8.21,7.23-6.17.31.2a35.27,35.27,0,0,0,12.94,5.26l.38.07Zm5.8-27a17.62,17.62,0,1,1,17.62-17.61A17.64,17.64,0,0,1,374.66,295.93Zm0-34.23a16.62,16.62,0,1,0,16.62,16.62A16.64,16.64,0,0,0,374.66,261.7Z" style="fill:#ebebeb"></path></g><g id="freepik--Plant--inject-68"><path d="M114.22,392.27c-11.55,15.64-23.59,33.79-26.52,53.4a.26.26,0,0,0,.51.09,117,117,0,0,1,5.11-15.7c7.59-2.09,15-3.8,19-11.34,4.07-7.74,3.55-17.84,2.78-26.28C115.07,392,114.45,392,114.22,392.27Z" style="fill:#AF7F05"></path><path d="M93.43,429.92c5.19-11.64,11.85-23.33,20.31-32.9.06-.07.15,0,.09.09-5.54,6.82-9.75,14.24-13.86,21.8,3.82-3.89,8-7.36,11.63-11.48.07-.08.19,0,.12.12-3.6,4.31-7.53,9-12.21,12.2-1.26,2.31-2.52,4.64-3.81,7l1-.49s.1.06,0,.09c-.36.18-.72.37-1.08.52-.61,1.1-1.21,2.2-1.84,3.3C93.66,430.38,93.32,430.16,93.43,429.92Z" style="fill:#263238"></path><path d="M97.29,425.86a69.37,69.37,0,0,0,8.86-5.92c.08-.06.19,0,.11.11a46.6,46.6,0,0,1-8.84,6A.12.12,0,1,1,97.29,425.86Z" style="fill:#263238"></path><path d="M86.36,442.75c0,.24.43.23.43,0,.06-6.46,0-12.94.1-19.43,1.65-3.34,5.21-5.19,7.67-7.86A34.16,34.16,0,0,0,99.17,409a46,46,0,0,0,5.34-17.81c.69-6.91-1.94-29.7-4.85-28.91-1.51.41-6.39,11.7-7.69,15.43a107.77,107.77,0,0,0-4.6,18.93C85,411.85,85.21,427.46,86.36,442.75Z" style="fill:#AF7F05"></path><path d="M86.32,414.89l0,0c.35-8.17,2.19-16.43,3.92-24.35,1.85-8.54,4-16.58,8.42-24.19a.12.12,0,1,1,.21.13A90,90,0,0,0,92.14,385c.29-.46.65-.89,1-1.33.12-.17.4,0,.28.17A12.57,12.57,0,0,1,92,385.8a.07.07,0,0,1-.06,0c-1.51,6.11-2.6,12.35-3.53,18.57l.21-.24c.05,0,.13,0,.1.08l-.37.61c-.47,3.16-.91,6.32-1.34,9.45,5.63-4.81,10.43-10.48,13.14-17.47,0,0,.07,0,0,0-2.65,7.24-6.84,13.68-13.28,18.08l-.36,2.52c0,.18-.3.13-.3,0,0-.74,0-1.49.07-2.24A.17.17,0,0,1,86.32,414.89Z" style="fill:#263238"></path><path d="M89,403.05c4.3-6.41,8.32-12.65,11.46-19.74a.08.08,0,0,1,.14.06c-2.65,7.05-6.36,14.19-11.38,19.85C89.08,403.33,88.88,403.18,89,403.05Z" style="fill:#263238"></path><path d="M94.68,381.72c1.79-3.15,3.66-6.22,5.34-9.43,0-.09.17,0,.13.08A48.45,48.45,0,0,1,95,381.88.16.16,0,0,1,94.68,381.72Z" style="fill:#263238"></path><path d="M94,383.09s0,.06,0,.06A0,0,0,0,1,94,383.09Z" style="fill:#263238"></path><path d="M82,424.07a66.36,66.36,0,0,1-1.5,12.73c.06.46.13.92.2,1.39A61,61,0,0,0,83,424a.46.46,0,0,0,0-.44h0a93.94,93.94,0,0,0-1.43-19.22c-2-11.87-6.36-23.26-14.64-32.15a.59.59,0,0,0-.92.19c-3.34,8.49-2.17,18.62.67,27.1a49.67,49.67,0,0,0,6.57,12.87C76.07,416.34,79.69,419.71,82,424.07Z" style="fill:#AF7F05"></path><path d="M67.89,376.16c7.84,12.73,13.3,27.83,14,42.87,0,.26-.44.33-.48.06-.18-1.35-.39-2.69-.61-4h0c-3.24-3.11-6.58-6.39-8.9-10.27,0-.07.06-.15.11-.09a107.15,107.15,0,0,0,8.65,9.41q-.84-5-2-9.82l-.62-.73c-.13-.16.09-.39.23-.23l.19.21a111.7,111.7,0,0,0-4.1-13c-2-2.39-4.23-4.44-5.68-7.31a.06.06,0,1,1,.1-.06c1.17,1.64,2.3,3.29,3.63,4.81.53.61,1.11,1.17,1.66,1.77a100.65,100.65,0,0,0-6.43-13.39A.18.18,0,0,1,67.89,376.16Z" style="fill:#263238"></path><path d="M69.47,391.87c2.54,3.41,5.43,6.66,7.79,10.19a.11.11,0,0,1-.17.13A52.12,52.12,0,0,1,69.3,392C69.23,391.86,69.4,391.77,69.47,391.87Z" style="fill:#263238"></path><path d="M77.61,402.85l.11.11c.07.07,0,.19-.12.12l-.11-.11C77.42,402.89,77.54,402.78,77.61,402.85Z" style="fill:#263238"></path><path d="M55.6,400.64a39,39,0,0,0,8.28,19.42,20.66,20.66,0,0,0,6.71,5.24c2.9,1.43,6,3.09,9,4.27a59.26,59.26,0,0,1,3.17,11.27c.1-.33.19-.67.29-1C81.08,423.26,70.35,409.08,56.62,400A.67.67,0,0,0,55.6,400.64Z" style="fill:#AF7F05"></path><path d="M60.34,405.54c-.1-.09,0-.26.14-.19A56.2,56.2,0,0,1,78,426.91c.1.23-.21.43-.34.2q-1-1.68-1.95-3.27h0c-3.13-.59-6.1-2.8-8.43-4.89-.06-.06,0-.15.1-.09a18.83,18.83,0,0,0,4,2.78c1.28.65,2.65,1.06,4,1.58-1.16-1.85-2.37-3.61-3.63-5.33a36.85,36.85,0,0,1-9.42-5.29c-.09-.07,0-.21.09-.15a94.49,94.49,0,0,0,8.75,4.68,77.7,77.7,0,0,0-6.18-7.21c-1.06-.56-2.14-1.12-3.17-1.73-.09-.05,0-.19.06-.16a11.74,11.74,0,0,1,2.44,1.2C63,408,61.71,406.74,60.34,405.54Z" style="fill:#263238"></path><path d="M60.63,411.26a3.94,3.94,0,0,1,.53.38c.05,0,0,.11-.07.08a3.35,3.35,0,0,1-.55-.31C60.45,411.35,60.54,411.2,60.63,411.26Z" style="fill:#263238"></path><polygon points="104.43 476.75 66.82 476.75 69.85 442.5 70.52 434.94 100.73 434.94 101.39 442.5 104.43 476.75" style="fill:#455a64"></polygon><polygon points="101.39 442.5 69.85 442.5 70.52 434.94 100.73 434.94 101.39 442.5" style="fill:#263238"></polygon><rect x="68.72" y="429.66" width="33.81" height="7.48" style="fill:#455a64"></rect></g><g id="freepik--Floor--inject-68"><path d="M46.66,476.75c130.27-.61,276.41-.62,406.68,0-130.27.62-276.41.61-406.68,0Z" style="fill:#263238"></path></g><g id="freepik--Puzzle--inject-68"><path d="M295.57,97.05a17.32,17.32,0,0,1-30.72,11,8.51,8.51,0,0,0-6.55-3.22,8.33,8.33,0,0,0-8.31,8.31v43.41H206.57a8.29,8.29,0,0,1-8.3-8.29,8.09,8.09,0,0,1,.86-3.64,8.89,8.89,0,0,1,2.35-2.92,17.31,17.31,0,1,0-21.93,0,8.53,8.53,0,0,1,3.22,6.56,8.28,8.28,0,0,1-8.3,8.29H131V37.58h43.43a8.3,8.3,0,0,1,8.3,8.29,8.07,8.07,0,0,1-.87,3.64,8.92,8.92,0,0,1-2.35,2.92,17.32,17.32,0,1,0,21.93,0,8.52,8.52,0,0,1-3.21-6.56,8.28,8.28,0,0,1,8.3-8.29H250V81a8.31,8.31,0,0,0,8.31,8.31,8.09,8.09,0,0,0,3.63-.87,9.05,9.05,0,0,0,2.92-2.35,17.32,17.32,0,0,1,30.72,11Z" style="fill:#AF7F05"></path><polygon points="239.59 156.52 217.29 156.52 217.29 174.89 239.59 156.52" style="fill:#AF7F05"></polygon><g style="opacity:0.6000000000000001"><path d="M295.57,97.05a17.32,17.32,0,0,1-30.72,11,8.51,8.51,0,0,0-6.55-3.22,8.33,8.33,0,0,0-8.31,8.31v43.41H206.57a8.29,8.29,0,0,1-8.3-8.29,8.09,8.09,0,0,1,.86-3.64,8.89,8.89,0,0,1,2.35-2.92,17.31,17.31,0,1,0-21.93,0,8.53,8.53,0,0,1,3.22,6.56,8.28,8.28,0,0,1-8.3,8.29H131V37.58h43.43a8.3,8.3,0,0,1,8.3,8.29,8.07,8.07,0,0,1-.87,3.64,8.92,8.92,0,0,1-2.35,2.92,17.32,17.32,0,1,0,21.93,0,8.52,8.52,0,0,1-3.21-6.56,8.28,8.28,0,0,1,8.3-8.29H250V81a8.31,8.31,0,0,0,8.31,8.31,8.09,8.09,0,0,0,3.63-.87,9.05,9.05,0,0,0,2.92-2.35,17.32,17.32,0,0,1,30.72,11Z" style="fill:#fff"></path><polygon points="239.59 156.52 217.29 156.52 217.29 174.89 239.59 156.52" style="fill:#fff"></polygon></g><path d="M323.37,97.05a17.33,17.33,0,0,0,30.73,11,8.51,8.51,0,0,1,6.55-3.22,8.33,8.33,0,0,1,8.31,8.31v43.41H250V113.11a8.24,8.24,0,0,1,11.92-7.44,9.18,9.18,0,0,1,2.92,2.35,17.31,17.31,0,1,0,0-21.94,8.52,8.52,0,0,1-6.56,3.22A8.3,8.3,0,0,1,250,81V37.59H369V81a8.3,8.3,0,0,1-8.31,8.31,8.09,8.09,0,0,1-3.63-.87,8.92,8.92,0,0,1-2.92-2.35,17.33,17.33,0,0,0-30.73,11Z" style="fill:#AF7F05"></path><polygon points="260.43 156.52 282.74 156.52 282.74 174.89 260.43 156.52" style="fill:#AF7F05"></polygon></g><g id="freepik--character-2--inject-68"><path d="M256.91,476.68c2.1.66,63.68-.67,65.93-2.17.87-.56-4.41-58.88-4.41-58.88l-39.05.74,4.44,39s-22.72,10.76-25,12.67S254.8,476,256.91,476.68Z" style="fill:#eb9481"></path><path d="M256.91,476.68c2.1.66,63.68-.67,65.93-2.18.27-.17.35-6.09-.63-13.8-11.16,1.87-51,8-54.12,6.17-2.17-1.28-.25-3.26,1.52-4.6-5.09,2.53-9.83,5-10.81,5.79C256.51,470,254.8,476,256.91,476.68Z" style="fill:#263238"></path><path d="M282.72,446l38.34-.54s-7.6-91.82-7.28-93.59c.4-2.26,27.6-108.92,27.6-108.92H304.79s-28.85,99.41-29.89,109C273.22,367.44,282.72,446,282.72,446Z" style="fill:#263238"></path><path d="M317.61,436.84c-2.27-.16-4.56-.14-6.83-.17s-4.54,0-6.82,0c-4.54,0-9.09.11-13.63.24-1.25,0-2.49.07-3.73.13s-2.66.29-4,.34c-.1,0-.1.16,0,.16,1.11,0,2.23.18,3.35.21s2.32,0,3.48,0l6.82,0c4.54,0,9.09-.1,13.63-.28,2.57-.11,5.16-.14,7.72-.4A.12.12,0,0,0,317.61,436.84Z" style="fill:#37474f"></path><path d="M333.33,251.6c-3.27,11.59-6.26,23.29-9.2,35s-5.85,23.39-8.76,35.08q-2.19,8.78-4.37,17.55c-1.41,5.69-3.06,11.42-3.41,17.3s.4,12,.91,18,1,12,1.53,18c1.05,12,2.06,24,3.36,35.91.16,1.5.32,3,.47,4.49,0,.13.21.12.2,0-.79-12-1.62-23.95-2.57-35.93q-.72-9-1.46-18c-.5-6-1.19-12-1.38-18A64.08,64.08,0,0,1,311,343.29q2.14-8.6,4.3-17.17,4.4-17.55,8.76-35.09c3.25-13.1,6.5-26.22,9.36-39.41C333.46,251.55,333.35,251.53,333.33,251.6Z" style="fill:#37474f"></path><path d="M341.39,243s-11.68,45.76-19.84,78L306,243Z" style="fill:#37474f"></path><path d="M302.89,476.82c2.11.66,63.69-.67,65.94-2.17.86-.55-2.36-58.92-2.36-58.92l-38.53.75,1.86,39s-22.72,10.76-25,12.68S300.78,476.17,302.89,476.82Z" style="fill:#eb9481"></path><path d="M302.89,476.82c2.11.66,63.69-.67,65.94-2.17.27-.17.2-5.94,0-13.81-11.17,1.87-51.64,8-54.75,6.17-2.16-1.27-.25-3.26,1.53-4.6-5.09,2.54-9.84,5-10.82,5.8C302.5,470.11,300.78,476.18,302.89,476.82Z" style="fill:#263238"></path><path d="M306,243s2.06,25.87,6.33,32.37a65.22,65.22,0,0,1,10.61,5.28s2.64,69.21,2.59,73.37c-.17,15.55,3.8,91.27,3.8,91.27L368,444.9s-4-85.64-4-91.33c0-5.51-2.63-40.26-5-70.39,0,0,3.44-9.63,3.06-14.49-.92-11.78-6.2-25.71-6.2-25.71Z" style="fill:#263238"></path><path d="M319.58,267.57c-.15-1-.29-1.94-.44-2.9-.27-1.78-.63-3.54-.94-5.31-.71-4-1.44-8-2.33-12a.09.09,0,0,0-.18,0c.16,1.6.34,3.2.57,4.8s.39,3.2.61,4.8c.45,3.17.89,6.34,1.43,9.49.21,1.22,1,3.39-.78,3.77-1.39.3-2.4-1.06-2.81-2.2a27.19,27.19,0,0,1-.93-4.37c-.29-1.6-.54-3.21-.77-4.82q-.74-5.25-1.6-10.48c0-.1-.18-.07-.18,0,.12,3.6.31,7.16.78,10.73.22,1.7.48,3.4.77,5.1A18.06,18.06,0,0,0,314,269a3.86,3.86,0,0,0,2.89,2.32h.08a.14.14,0,0,0-.05.1c0,.57,0,1.15.07,1.71s.17,1.12.28,1.67a12,12,0,0,0,.43,1.67,7.28,7.28,0,0,0,.31.77c.13.25.3.46.45.7s.18,0,.19-.06h0a2.53,2.53,0,0,1,0-.28.43.43,0,0,1,0,0h0a2.69,2.69,0,0,0,0-.49c0-.28-.1-.55-.16-.82-.12-.54-.27-1.07-.41-1.61s-.26-1.07-.4-1.6-.32-1.09-.45-1.65a.07.07,0,0,0,0-.05,2.53,2.53,0,0,0,2.44-1.53A4.39,4.39,0,0,0,319.58,267.57Z" style="fill:#37474f"></path><path d="M326.05,281.47a30.51,30.51,0,0,0-3.64-2.4,36.09,36.09,0,0,0-4.14-2.15c-2.8-1.21-5.68-2-8.57-3-.09,0-.14.11-.06.15,2.8,1.11,5.48,2.58,8.18,3.9,1.33.66,2.67,1.27,4,1.87s2.71,1.3,4.1,1.81C326.05,281.7,326.13,281.54,326.05,281.47Z" style="fill:#37474f"></path><path d="M347.87,259.87c-2,0-8.77-.5-10.78-2.76a13.77,13.77,0,0,1-2.52-4.53,44.27,44.27,0,0,1-1.53-5.52c0-.09-.15-.06-.15,0a21.06,21.06,0,0,0,.79,6.26,9.6,9.6,0,0,0,2.51,4.86,9.85,9.85,0,0,0,5.34,2,24.54,24.54,0,0,0,6.35-.08A.11.11,0,0,0,347.87,259.87Z" style="fill:#37474f"></path><path d="M301.35,260.4a6.49,6.49,0,0,0,2.6-1.58c1.49-2.24,1.85-9.36,2-11.23,0-.09.05-.06.05,0,0,2.1-.08,4.23-.25,6.26a22,22,0,0,1-.77,4.86c-.46,1.27-3,2.15-3.61,1.87C301.31,260.59,301.31,260.4,301.35,260.4Z" style="fill:#37474f"></path><path d="M366.26,437.41c-2.26-.17-4.55-.14-6.82-.17s-4.55,0-6.83,0c-4.54,0-9.09.11-13.63.24-1.25,0-2.49.07-3.73.13s-2.66.29-4,.34a.08.08,0,0,0,0,.16c1.12,0,2.23.17,3.35.21s2.32,0,3.48,0c2.27,0,4.55,0,6.82,0,4.54,0,9.09-.1,13.63-.29,2.57-.1,5.16-.13,7.72-.39A.12.12,0,0,0,366.26,437.41Z" style="fill:#37474f"></path><path d="M361.55,432.37h0a.47.47,0,0,0,.45-.49L353.29,282c.11-.66,2.57-9,2.79-13.3.23-4.52-4.44-22.14-4.64-22.89a.48.48,0,0,0-.58-.33.47.47,0,0,0-.33.58c.05.18,4.83,18.22,4.61,22.59s-2.78,13.17-2.79,13.24,8.72,150,8.72,150A.48.48,0,0,0,361.55,432.37Z" style="fill:#37474f"></path><path d="M330.72,189.21c-.1,2.73,1.29,3.7,1.33,5.16,0,0-6.33,2.73-16.88,2.37s-16.67-3.51-16.67-3.51c.13-1.46,1.58-2.34,1.68-5.07.1-3.15-2-3.45-1.34-8.22.5-3.54,3.18-3.89,3.85-10.87.68-7.21,3.52-10,5.7-11.6a12,12,0,0,1,8.2-2.41s3.8-.63,7.82,2.7c2.06,1.72,4.91,5,5.1,12.23.19,7,2.84,7.53,3.09,11.11C332.94,185.89,330.82,186.05,330.72,189.21Z" style="fill:#263238"></path><path d="M302.41,173a13.52,13.52,0,0,0,.93-6.53c0-.11-.15-.12-.16,0-.09,2.09-.07,4.24-1,6.15-.78,1.65-2.16,2.8-3.24,4.19a7.59,7.59,0,0,0-1.67,4.51,7.32,7.32,0,0,0,.38,2.51,17.29,17.29,0,0,0,1.2,2.3c1.21,2.35-.44,4.77-1.77,6.55,0,0,0,.05,0,0a9,9,0,0,0,2.44-4.69,4.28,4.28,0,0,0-.62-2.53,8.49,8.49,0,0,1-1.13-2.68,7.06,7.06,0,0,1,1.34-5.57C300.23,175.77,301.6,174.61,302.41,173Z" style="fill:#263238"></path><path d="M333.66,180.92a13.51,13.51,0,0,0-2.35-5.25A12.58,12.58,0,0,1,330,173.1a15.92,15.92,0,0,1-.63-3.23,33.31,33.31,0,0,0-.5-3.57,22.64,22.64,0,0,0-1.08-3.42s-.09,0-.07,0a24.07,24.07,0,0,1,1.35,6.59,13.46,13.46,0,0,0,1.53,5.68c1,1.67,2.17,3.18,2.59,5.16s.52,4.71-.6,6.58c-.92,1.54-2.68,3.3-1.84,5.32,0,.07.13,0,.1,0-.67-2.3,1.35-3.85,2.24-5.63A9.75,9.75,0,0,0,333.66,180.92Z" style="fill:#263238"></path><path d="M315.72,208c-5.34,20-11.66,41-19,44-6.13,2.6-20,6.09-38,8.49-3.32.44.59-26.59,2.95-26.6,6.28,0,24.53-3.43,25.22-4.37.9-1.23,11.11-17,18.35-27.14C315,188.67,318.49,197.62,315.72,208Z" style="fill:#eb9481"></path><path d="M262.56,259.55c-2.7.92-15.45,4.06-19.19,4.13s-14.52-.47-14.87-3.33,2.82-3,2.82-3-4.52-1-4.61-3.87,4.84-2.88,4.84-2.88-4.56-1.32-4.44-4.23,5.07-2.06,5.07-2.06-4.23-1-3.13-3.37c1.33-2.83,8.92-.08,13-.48.93-.09,18.85-3.18,18.85-3.18Z" style="fill:#eb9481"></path><path d="M231.75,244.3c5.59,2,8.38,1.91,14.09.65a.09.09,0,0,1,.06.17c-5.48,1.75-9,2.37-14.26-.56C231.38,244.42,231.49,244.2,231.75,244.3Z" style="fill:#263238"></path><path d="M231.11,250.48c6,1.58,9,1.51,15.09.62.08,0,.11.13,0,.15-5.89,1.37-9.38,1.9-15.15-.46C230.82,250.69,230.84,250.41,231.11,250.48Z" style="fill:#263238"></path><path d="M231.62,257.35c5.91,1.1,9.23,1.17,15-.45a.11.11,0,0,1,.07.21c-5.74,2.22-9.89,2.17-15.1.42C231.25,257.41,231.25,257.28,231.62,257.35Z" style="fill:#263238"></path><path d="M264.06,234.71s-6.75-3.12-10-3.84-16.43,1.09-16.2,3.95c.3,3.7,8.1,4.16,11.95,3.88,0,0,.68,8.56,6.21,10.1S264.06,234.71,264.06,234.71Z" style="fill:#eb9481"></path><path d="M238.26,235.81c2.7,3.18,7.73,2.49,11.49,2.51a.34.34,0,0,1,.34.44c.52,3.57,2.3,8.45,5.7,10.15a.09.09,0,0,1-.06.17c-3.9-1.33-6-6-6.36-9.93-3.85,0-8.93.52-11.15-3.31C238.21,235.82,238.24,235.79,238.26,235.81Z" style="fill:#263238"></path><path d="M264,233.29l-.61,28.27s27.78-4.9,35.35-10.12c5.67-3.9,15.11-29.43,17.7-45.33,2.66-16.27-6.25-12-11.13-4.4S287,228.65,286.46,228.93,264,233.29,264,233.29Z" style="fill:#455a64"></path><path d="M270.28,245.54q.08-3,.19-6.09c.07-2,.07-4.07.29-6.08,0-.09.15-.11.16,0,.14,1.94.08,3.93.08,5.89s0,4.15,0,6.22c0,4.11-.23,8.2-.49,12.3,0,.1-.14.09-.15,0C270.22,253.69,270.17,249.63,270.28,245.54Z" style="fill:#263238"></path><path d="M316.48,206.11c-2.6,15.9-12,41.43-17.71,45.34-4.61,3.17-16.72,6.22-25.47,8.14l39-64.34C315.57,194.06,318.05,196.49,316.48,206.11Z" style="opacity:0.1"></path><path d="M303.06,233.39l-1.71,15.11,8.88-.47,1.61-5.51,3.16,5.32,43.08-3.38-6.6-11.83c-5.2-11.46-11.78-28.73-20.45-37-6.88-6.56-14.4-5.54-18.89-.35-1.14,1.32-12.2,19.9-13.26,27.33C298.12,227.93,303.06,233.39,303.06,233.39Z" style="fill:#455a64"></path><path d="M303.06,233.39l-1.71,15.11,8.88-.47,1.61-5.51,3.16,5.32,43.08-3.38-6.6-11.83c-5.2-11.46-11.78-28.73-20.45-37-6.88-6.56-14.4-5.54-18.89-.35-1.14,1.32-12.2,19.9-13.26,27.33C298.12,227.93,303.06,233.39,303.06,233.39Z" style="fill:#455a64"></path><path d="M319.2,229.39a41.28,41.28,0,0,0-7.26,1.3c-1.18.34-2.34.74-3.51,1.18-.58.22-1.16.41-1.75.6a6.37,6.37,0,0,1-1.87.39c-.05,0-.06.1,0,.11a10.69,10.69,0,0,0,1.79,0,11.16,11.16,0,0,0,1.72-.35c1.21-.34,2.4-.74,3.6-1.08,2.42-.71,4.85-1.41,7.31-1.9C319.34,229.61,319.32,229.38,319.2,229.39Z" style="fill:#263238"></path><path d="M325.15,232.13a43.48,43.48,0,0,0-6-.48c-1,0-2,.06-3,.16-.48.05-1,.1-1.44.17s-1.05.22-1.58.29c0,0,0,.11,0,.1.5,0,1,0,1.51,0l1.5,0c1,0,2,0,3,0,2,0,4-.05,6,0C325.26,232.33,325.26,232.14,325.15,232.13Z" style="fill:#263238"></path><path d="M325.45,191.94a82.31,82.31,0,0,1-7,17.59,132.7,132.7,0,0,1-7.54,11.1,55.4,55.4,0,0,1-1.74-8.15c-.33-4.3.31-8.88,1.9-15.63.52-.82.89-1.37,1.05-1.56A11.46,11.46,0,0,1,325.45,191.94Z" style="fill:#ebebeb"></path><path d="M310.93,220.63c-.6,3.83-1.09,8.08.54,11.7.18,3.39.35,6.79.37,10.19-.39-3.37-.63-6.74-.85-10.12-1.58-3.21-1.1-8.1-.06-11.77Z" style="fill:#263238"></path><path d="M313.91,224.45a1.14,1.14,0,0,1-2.28,0,1.14,1.14,0,0,1,2.28,0Zm0,0a.89.89,0,0,0-1.78,0,.89.89,0,0,0,1.78,0Z" style="fill:#263238"></path><path d="M314.61,232.28a1.14,1.14,0,0,1-2.28,0,1.14,1.14,0,1,1,2.28,0Zm0,0a.89.89,0,0,0-1.78,0,.89.89,0,0,0,1.78,0Z" style="fill:#263238"></path><path d="M315.31,240.1a1.15,1.15,0,0,1-2.29,0,1.15,1.15,0,0,1,2.29,0Zm0,0a.9.9,0,0,0-1.79,0,.9.9,0,0,0,1.79,0Z" style="fill:#263238"></path><path d="M333.83,203.28c12.94,18.68,23.93,46.92,18.74,52.86-5.77,6.62-23.67-18.74-23.32-20,.27-.95-1.07-14.74-4.06-30.4S330.63,198.66,333.83,203.28Z" style="fill:#eb9481"></path><path d="M329.76,239.8c-.24-2.26-4.56-26.48-5.91-35.39s2.83-11.08,10-1.79,18.62,29.4,20.21,43.75c1.53,13.82-5.34,13.83-13.38,6.07A95.68,95.68,0,0,1,329.76,239.8Z" style="fill:#455a64"></path><path d="M329.76,239.8c-.4-2.84-.84-5.67-1.29-8.5s-1-5.66-1.42-8.49l-1.51-8.46-.79-4.23c-.28-1.41-.54-2.81-.83-4.22.19,1.42.42,2.84.62,4.26l.67,4.24,1.42,8.49c.5,2.82,1,5.64,1.51,8.46S329.19,237,329.76,239.8Z" style="fill:#263238"></path><path d="M324.93,212.48a14.75,14.75,0,0,0-.74-2.15c-.15-.34-.3-.69-.46-1s-.34-.68-.51-1a10.11,10.11,0,0,0,.67,2.17A13.41,13.41,0,0,0,324.93,212.48Z" style="fill:#263238"></path><path d="M353.06,255.09c-3.54,5.73-12.84,7.52-38.69,14.1-3.58.91-17.62-23-13.85-24.16,4.75-1.47,23.5-6.15,24.91-6.32C337.36,237.28,355.46,251.21,353.06,255.09Z" style="fill:#eb9481"></path><path d="M309.42,244s-10.08,0-16.68.3c-3.68.17-10,1-12.61,2.39-4,2-19.21,13.09-16.61,16.84,2.35,3.4,14.25-7.75,14.25-7.75s-13,10.19-9.41,13.76,15.35-10.81,15.35-10.81-13.12,10.77-8.84,13.87c3.23,2.34,14.62-10.09,14.62-10.09s-11.21,9.34-8,11.89c3.56,2.82,14.8-8,14.8-8,9.28,5.11,15.79,3.74,20.31,2.22C317.7,268.29,309.42,244,309.42,244Z" style="fill:#eb9481"></path><path d="M282,252c-1.57,1.14-3.17,2.29-4.63,3.57s-2.88,2.61-4.22,4a34,34,0,0,0-4.69,6c2.64-3.67,7.81-8.32,9.28-9.6s2.85-2.63,4.31-3.9A0,0,0,1,0,282,252Z" style="fill:#263238"></path><path d="M286.75,257.2c-1.94,1.55-3.92,3-5.8,4.64s-3.49,3.33-5.24,5.08c-.14.13,0,.16.12,0,1.82-1.67,3.63-3.08,5.47-4.74s3.61-3.38,5.49-5A0,0,0,0,0,286.75,257.2Z" style="fill:#263238"></path><path d="M291.6,260.94a55.72,55.72,0,0,0-8.33,7.77c-.13.14,0,.16.17,0,2.72-2.64,4.83-4.73,8.24-7.69C291.73,261,291.66,260.89,291.6,260.94Z" style="fill:#263238"></path><path d="M303.37,243.68l24.33,24.23s22.57-6.68,25.65-12.81c2-4-16-18.84-29.06-16.25Z" style="fill:#455a64"></path><path d="M340.23,242.12a22.85,22.85,0,0,0-16-3.29c-.07,0-.06.12,0,.11,5.73-.48,13.66,2.09,15.9,3.28C340.24,242.25,340.28,242.15,340.23,242.12Z" style="fill:#263238"></path><path d="M333.72,263.29c-2.53-2.81-5.21-5.48-7.9-8.14s-5.37-5.34-8.13-7.93c-1.55-1.47-3.1-2.95-4.71-4.36,0,0-.11,0-.07.07,2.52,2.8,5.2,5.48,7.86,8.16s5.37,5.34,8.1,8c1.54,1.48,3.1,2.94,4.71,4.35C333.66,263.48,333.8,263.37,333.72,263.29Z" style="fill:#263238"></path><path d="M303.31,243.35a32.61,32.61,0,0,1,4.24-1.22c1.43-.35,2.86-.68,4.3-1,2.87-.63,8.86-2.27,14.19-2.56.06,0-.23.3-.28.3-2.55,0-20.54,4.64-22,4.83a3,3,0,0,1,.18.3c0,.07,0,.17-.12.12s-.33-.27-.52-.4A.21.21,0,0,1,303.31,243.35Z" style="fill:#263238"></path><path d="M339.38,208.27c6.54,11.32,12.57,23.47,14.51,36.52-2.95-12.84-8.86-24.71-14.51-36.52Z" style="fill:#263238"></path><path d="M310.66,196.75,305.92,205l-.14-.3,3,.52.34.06-.2.3-2.85,4.27,0-.31,5.15,10.92-.58-.11c3.89-3.71,7.84-7.35,11.75-11l-.07.36L320.77,206l-.1-.23.2-.13,4.87-3.25-.1.2c-.17-3.28-.26-6.57-.38-9.85.28,3.27.6,6.54.83,9.82v.13l-.11.07-4.79,3.37.11-.37,1.64,3.73.09.2c-4.08,3.86-8.12,7.76-12.23,11.59l-.21-.46-5.07-10.95-.08-.17.11-.15,3-4.17.15.36-3-.59-.29-.05.15-.25,5.09-8.06Z" style="fill:#263238"></path><path d="M322.89,193.14c-.1,1-3.87,7.68-8.23,8-1.42.11-2.33-7.61-2.33-7.61l-.2-.56-2.76-7.76,8.64-7.16,1.26-1s.61,2.17,1.35,4.88c0,.13.07.26.11.39s.09.3.12.44c.12.4.24.82.34,1.23s.17.62.24,1,.16.65.25,1A53.31,53.31,0,0,1,322.89,193.14Z" style="fill:#eb9481"></path><path d="M320.62,182a16.5,16.5,0,0,1-8.49,11l-2.76-7.76,8.64-7.16,1.26-1S319.88,179.26,320.62,182Z" style="fill:#263238"></path><path d="M298.28,170.17c-3.25,14.09,4.83,17.63,7.87,18.32,2.76.64,12.23,2.44,16.92-11.24s-.84-19.65-7.08-21.43S301.53,156.08,298.28,170.17Z" style="fill:#eb9481"></path><path d="M300.75,169.86a8.37,8.37,0,0,0,1-.05,1.62,1.62,0,0,0,1-.24.52.52,0,0,0,.09-.62,1.25,1.25,0,0,0-1.19-.49,1.85,1.85,0,0,0-1.27.47A.54.54,0,0,0,300.75,169.86Z" style="fill:#263238"></path><path d="M310.35,170.61a8.11,8.11,0,0,1-.93-.36,1.55,1.55,0,0,1-.88-.54.5.5,0,0,1,.1-.62,1.25,1.25,0,0,1,1.28-.1,1.82,1.82,0,0,1,1.06.84A.55.55,0,0,1,310.35,170.61Z" style="fill:#263238"></path><path d="M307.81,173s.07.06.06.1c-.2,1-.28,2.1.54,2.58,0,0,0,.07,0,.06C307.35,175.41,307.46,173.9,307.81,173Z" style="fill:#263238"></path><path d="M308.86,172.17c1.58.16,1.14,3.31-.33,3.16S307.54,172,308.86,172.17Z" style="fill:#263238"></path><path d="M309.46,172.42c.25.22.47.57.8.65s.71-.19,1-.48c0,0,.05,0,.05,0-.08.6-.4,1.19-1.06,1.19s-.95-.6-1-1.23C309.24,172.49,309.36,172.33,309.46,172.42Z" style="fill:#263238"></path><path d="M302.46,171.79s-.08,0-.08.08c-.1,1-.38,2.08-1.31,2.29,0,0,0,.06,0,.05C302.17,174.21,302.53,172.74,302.46,171.79Z" style="fill:#263238"></path><path d="M301.73,170.66c-1.56-.33-2.1,2.8-.66,3.1S303,170.93,301.73,170.66Z" style="fill:#263238"></path><path d="M301,170.75c-.28.12-.57.38-.87.35s-.54-.42-.71-.78c0,0,0,0,0,0-.12.6,0,1.25.52,1.47s1-.25,1.23-.82C301.21,170.88,301.15,170.7,301,170.75Z" style="fill:#263238"></path><path d="M306.68,181.26c-.26.21-.52.5-.88.5a2.52,2.52,0,0,1-1-.35s-.07,0,0,.05a1.32,1.32,0,0,0,1.19.65,1.06,1.06,0,0,0,.86-.79A.06.06,0,0,0,306.68,181.26Z" style="fill:#263238"></path><path d="M303.15,177.12s-.42,1.42-.53,2.11c0,.06.15.12.38.17h0a3.27,3.27,0,0,0,3.35-.73c.06-.06,0-.14-.09-.11a5,5,0,0,1-3.1.4c0-.2.81-2.42.7-2.44a6.06,6.06,0,0,0-1.61.11c.79-3,2.07-5.82,2.82-8.81a.1.1,0,0,0-.18-.07,50.32,50.32,0,0,0-3.44,9.36C301.37,177.49,302.86,177.19,303.15,177.12Z" style="fill:#263238"></path><path d="M303.11,179.15a4,4,0,0,0,1.3,1.55,1.82,1.82,0,0,0,1,.3c.82,0,1-.74,1-1.38a4.34,4.34,0,0,0-.15-1A5.15,5.15,0,0,1,303.11,179.15Z" style="fill:#263238"></path><path d="M304.41,180.7a1.82,1.82,0,0,0,1,.3c.82,0,1-.74,1-1.38A1.87,1.87,0,0,0,304.41,180.7Z" style="fill:#ff9abb"></path><path d="M321.4,177.67c-2.92-.76-1.39-7.5-1.39-7.5s-1.55-1.08-2.76-5c0,0,.65,3.26,2.29,4.94.27.28-9.53-3.23-8.57-11.18a16,16,0,0,1-11.51,6.59c-.24,0,2.39-6.76,4.27-8a16.85,16.85,0,0,1,14.73-1.87c6,2.44,8.38,9.93,8.19,12.71C326.27,173.85,322.79,178,321.4,177.67Z" style="fill:#263238"></path><path d="M319.18,170.24c-5.43-1.61-8.93-6.19-8-11.91a.13.13,0,0,0-.24-.06c-2.16,5.5,2.95,11.19,8.25,12.08C319.33,170.37,319.3,170.27,319.18,170.24Z" style="fill:#263238"></path><path d="M311.11,158.76a0,0,0,0,0-.05,0c-2.13,2.54-4.82,7.29-8.86,6.07a.09.09,0,1,0-.06.16C305.91,166.48,309.93,161.92,311.11,158.76Z" style="fill:#263238"></path><path d="M319.37,176.38s3.75-4,5.63-2.63-1.4,7.55-3.9,8.1a2.44,2.44,0,0,1-3.06-1.76Z" style="fill:#eb9481"></path><path d="M324,175.49s0,.06,0,.07a6.14,6.14,0,0,0-3.7,3.38,1.34,1.34,0,0,1,2.05-.08s0,.1-.06.08a1.51,1.51,0,0,0-1.71.29,7.05,7.05,0,0,0-1,1.21c-.1.14-.36,0-.28-.14l0,0C319.63,178.13,321.7,175.38,324,175.49Z" style="fill:#263238"></path><path d="M312.1,193l2.87,6.46,7.85-8.58,2.4,2.58s-7.5,13.46-7.57,12.87l-2.9-5.56L311,204.84l0-9.88Z" style="fill:#ebebeb"></path><path d="M310.69,200c.05-1.63.06-3.28.18-4.9,0-.06.09-.09.11,0,.38,1.56.16,7.79.22,9.29l0,0c.16-.18,3.49-3.59,3.53-3.54.61.88,2.74,4.92,2.89,5.29,1.19-2.14,6.24-10.58,7.66-12.61.05-.06.13,0,.1.05-1,2.25-7.55,13.39-7.65,13.36a61.57,61.57,0,0,1-3-5.87,43.24,43.24,0,0,1-3.93,4.33A50.46,50.46,0,0,1,310.69,200Z" style="fill:#263238"></path></g><g id="freepik--character-1--inject-68"><path d="M164.18,193.37c-9.83,4.92-29.87,17.11-31.46,25.83-1.89,10.39,19.9,35.2,31,42.91,4,2.8,16.62-14.42,14-18s-22.94-23.27-22.4-24.7c.91-2.4,5.3-7.9,12.37-17.53S168.88,191,164.18,193.37Z" style="fill:#ad6359"></path><path d="M157.36,254.48c-.86-2.76,12.83-15.25,15.63-14.26a38.83,38.83,0,0,0,15.89,1.08c4.82-.87,11.88-2.73,12.45-.15.84,3.76-7.81,7.17-12.9,8.83,2.14,2,3.8,3.86,4.36,5.31,1.87,4.85-18.68,15.92-23.24,13.26C165.16,266,158.22,257.24,157.36,254.48Z" style="fill:#ad6359"></path><rect x="156.85" y="274.28" width="71.07" height="43.06" transform="translate(-104.78 105.52) rotate(-24.33)" style="fill:#AF7F05"></rect><rect x="156.85" y="274.28" width="71.07" height="43.06" transform="translate(-104.78 105.52) rotate(-24.33)" style="opacity:0.30000000000000004"></rect><rect x="152.16" y="275.29" width="71.07" height="20.28" transform="translate(-100.92 102.66) rotate(-24.33)" style="opacity:0.1"></rect><rect x="147.83" y="269.54" width="74.43" height="20.1" transform="translate(-98.74 101.05) rotate(-24.33)" style="fill:#AF7F05"></rect><rect x="147.83" y="269.54" width="74.43" height="20.1" transform="translate(-98.74 101.05) rotate(-24.33)" style="opacity:0.30000000000000004"></rect><polygon points="190.47 253.53 195.19 263.97 190.28 266.19 187.59 260.25 168.86 268.72 171.54 274.66 166.63 276.88 161.91 266.44 190.47 253.53" style="fill:#263238"></polygon><rect x="164.37" y="294.06" width="4.85" height="9.6" transform="translate(-108.3 95.24) rotate(-24.33)" style="fill:#263238"></rect><rect x="209.15" y="273.82" width="4.85" height="9.6" transform="translate(-95.99 111.91) rotate(-24.33)" style="fill:#263238"></rect><path d="M188.43,248.41c-2.7.05-1.1,3.2-1.1,3.2s-3.39-4-6.15-2.87-.6,4.83-.46,5.1c-.18-.21-3.39-3.79-6.05-2.39s0,4.87.13,5.09c-.24-.14-3.35-2-5.13-.46-3,2.63,4.78,7.58,5.36,10.79,0,0-5.33,1.61-5.48,1.69s7.35,4.86,11.64,3.84a2.82,2.82,0,0,0,2.2-2.76s2.2,1.83,4.33.79c1.09-.54,1.2-2.76,1.2-2.76a3.51,3.51,0,0,0,3.65.34c1.47-.83,1.35-2.93,1.35-2.93s2.37.52,3.6-.81C200,261.58,194.2,248.33,188.43,248.41Z" style="fill:#ad6359"></path><path d="M194,264.74a0,0,0,1,0,.07,0,25.05,25.05,0,0,0-6.77-13.3c-.12-.11-.35,0-.25.17A51.25,51.25,0,0,1,194,264.74Z" style="fill:#263238"></path><path d="M189,267.72s.11,0,.1,0a23.46,23.46,0,0,0-8.29-14c-.15-.12-.41-.07-.24.08C183.38,256.26,187.48,263.29,189,267.72Z" style="fill:#263238"></path><path d="M174.4,256.41c4.22,3.5,6.89,8,9,13,0,.07.12,0,.11,0-.35-2.73-2-5.79-3.5-8.06a14.45,14.45,0,0,0-5.46-5.07C174.43,256.21,174.31,256.33,174.4,256.41Z" style="fill:#263238"></path><path d="M187.34,251.52c-.14-.14-.18.22-.33.08-.6-.54-4.51-3.54-5.95-2.52-1.14.81-.84,2.92-.41,3.69l1.09,1.92-1.69-1.43a9.3,9.3,0,0,0-2.5-1.52,3.27,3.27,0,0,0-2.65-.05,1.86,1.86,0,0,0-1.07,2.07,5.68,5.68,0,0,0,1.29,2.49l1.68,2-2.23-1.35a8.83,8.83,0,0,0-2-.87,3.5,3.5,0,0,0-2-.07,1.68,1.68,0,0,0-1.15,1.33,3.67,3.67,0,0,0,.56,2,29.81,29.81,0,0,0,2.64,3.7c.47.6.95,1.21,1.39,1.83a5.55,5.55,0,0,1,1,2.06,5.9,5.9,0,0,0-1.2-1.93c-.48-.58-1-1.15-1.52-1.71a25.12,25.12,0,0,1-2.89-3.64,4.28,4.28,0,0,1-.74-2.35,2.36,2.36,0,0,1,1.61-2,4.29,4.29,0,0,1,2.51,0,9.69,9.69,0,0,1,2.23.94l-.56.67a6.59,6.59,0,0,1-1.55-2.93,2.69,2.69,0,0,1,.27-1.79,3,3,0,0,1,1.31-1.22,4.11,4.11,0,0,1,3.35.06,9.84,9.84,0,0,1,2.73,1.72l-.6.49c-.52-1-1.12-3.31.5-4.8C182.89,246.74,186.7,250.74,187.34,251.52Z" style="fill:#263238"></path><path d="M187.33,251.61a5.08,5.08,0,0,1-.2-1.64,1.25,1.25,0,0,1,.65-1.09,2.51,2.51,0,0,1,1.44-.11c.54.09,1.1.21,1.67.36a4.24,4.24,0,0,0-1.52-.93,2.57,2.57,0,0,0-1.93,0,1.85,1.85,0,0,0-.75.77,1.9,1.9,0,0,0-.15,1A3,3,0,0,0,187.33,251.61Z" style="fill:#263238"></path><path d="M173.82,237.6l-19.2,21.54s-26.18-25.52-23.19-40.42c.69-3.43,12.44-16.68,31.21-25.55,5.38-2.54,15.85-2.33,5.52,10.48s-11.9,15.47-11.85,16S173.82,237.6,173.82,237.6Z" style="fill:#AF7F05"></path><path d="M151,252.93c1.62-1.45,3.05-3.15,4.52-4.75s2.9-3.18,4.33-4.78c2.88-3.23,5.87-6.42,8.54-9.84a.08.08,0,0,0-.12-.11c-3.22,3-6.14,6.27-9.07,9.51-1.47,1.62-2.91,3.27-4.34,4.93a59.11,59.11,0,0,0-4,4.94C150.85,252.91,151,253,151,252.93Z" style="fill:#263238"></path><path d="M173.82,237.6l-19.2,21.54s-14.18-13.81-20.47-27l32-40c5.15-.91,10.38,1.22,2,11.56-10.32,12.81-11.9,15.47-11.85,16S173.82,237.6,173.82,237.6Z" style="opacity:0.1"></path><path d="M133.34,415.22s-.63,39.72-.63,39.75c.1,7.45.31,14,.74,17.34a.09.09,0,0,0,0,.05,5.27,5.27,0,0,0,.58,2.3l0,0c2.24,1.47,61.76,2.43,63.85,1.77s.35-6.67-1.93-8.55-24.91-12.44-24.91-12.44l.25-40.27Z" style="fill:#ad6359"></path><path d="M132.56,447s.15,8,.15,8c.1,7.45.31,14,.74,17.34a.09.09,0,0,0,0,.05,10.08,10.08,0,0,0,.58,2.3l0,0c2.24,1.47,61.76,2.43,63.85,1.77s.35-6.67-1.93-8.55-24.91-12.44-24.91-12.44l0-8.11Z" style="fill:#fff"></path><path d="M174.73,455.47c-4-.62-8.77.14-11.7,3-.11.11.05.27.17.22A55.69,55.69,0,0,1,174.73,456,.25.25,0,0,0,174.73,455.47Z" style="fill:#263238"></path><path d="M177.64,457.1c-4-.62-8.78.14-11.71,3-.11.12,0,.28.18.23a54.76,54.76,0,0,1,11.53-2.77A.25.25,0,0,0,177.64,457.1Z" style="fill:#263238"></path><path d="M180.54,458.72c-4-.61-8.78.15-11.71,3-.11.12,0,.27.18.23a55.56,55.56,0,0,1,11.53-2.78A.25.25,0,0,0,180.54,458.72Z" style="fill:#263238"></path><path d="M197.93,476.47c-2.09.67-61.58.8-63.82-.68-.87-.55-1.26-10.32-1.4-20.82v-.33l38.41.19,0,.66S193.71,466,196,467.93,200,475.81,197.93,476.47Z" style="fill:#AF7F05"></path><path d="M197.93,476.47c-2.09.67-61.58.8-63.82-.68-.87-.55-1.26-10.32-1.4-20.82v-.33l38.41.19,0,.66S193.71,466,196,467.93,200,475.81,197.93,476.47Z" style="opacity:0.4"></path><path d="M197.29,474.15c-10-.41-50.52-1.11-60.46-.75-.08,0-.08.06,0,.07,9.93.62,50.42,1,60.46.85C197.5,474.31,197.5,474.16,197.29,474.15Z" style="fill:#263238"></path><path d="M168.07,454.93l22.34,21.87a70.91,70.91,0,0,0,7.52-.33c2.09-.66.35-6.66-1.93-8.55s-24.91-12.44-24.91-12.44l0-.64-2.93,0Z" style="opacity:0.1"></path><path d="M130.34,454.47l44.39.51s1-73.44,1-96.82c-.05-26.71-4.05-106.4-4.05-106.4l-32.19.31a102.26,102.26,0,0,0-7,25.16c-.51,3.72.07,14.57,1.36,19.52l3.14,64.91Z" style="fill:#37474f"></path><path d="M168.76,408.09c.38-11.59.61-25.83.81-37.44q.62-34.8-.18-69.62c-.3-13-.77-26-1.29-39,0-.15.22-.14.23,0,1.47,23.29,2.16,46.63,2.42,70s0,49.06-.89,72.25c-.51,13-1.18,26.05-2.27,39,0,.11-.18.11-.18,0C167.82,431.51,168.36,419.81,168.76,408.09Z" style="fill:#263238"></path><path d="M169,446.6c-8.65-.58-17.35-.59-26-.43-2.45.05-4.9.12-7.35.24-.09,0-.08.13,0,.14,8.65.53,17.35.63,26,.46,2.45-.05,4.9-.12,7.34-.26A.08.08,0,0,0,169,446.6Z" style="fill:#263238"></path><path d="M192.28,418.15s.15,37.37.14,37.39c.1,7.45.32,14,.75,17.34v.05a5.27,5.27,0,0,0,.58,2.3l.05,0c2.23,1.48,61.76,2.44,63.84,1.77s.36-6.67-1.92-8.55-24.92-12.44-24.92-12.44l-2.18-37.8Z" style="fill:#ad6359"></path><path d="M192.28,447.55s.15,8,.14,8c.1,7.45.32,14,.75,17.34v.05a10.5,10.5,0,0,0,.58,2.3l.05,0c2.23,1.48,61.76,2.44,63.84,1.77s.36-6.67-1.92-8.55-24.92-12.44-24.92-12.44l0-8.11Z" style="fill:#fff"></path><path d="M234.45,456c-4-.61-8.78.14-11.71,3-.11.11,0,.27.18.23a55.56,55.56,0,0,1,11.53-2.78A.25.25,0,0,0,234.45,456Z" style="fill:#263238"></path><path d="M237.35,457.67c-4-.62-8.78.14-11.7,3.05-.12.11,0,.27.17.22a55.69,55.69,0,0,1,11.53-2.77A.25.25,0,0,0,237.35,457.67Z" style="fill:#263238"></path><path d="M240.25,459.3c-4-.62-8.77.14-11.7,3-.11.12,0,.28.17.23a55.06,55.06,0,0,1,11.53-2.77A.25.25,0,0,0,240.25,459.3Z" style="fill:#263238"></path><path d="M257.64,477c-2.09.67-61.81,1-64-.44-.86-.54-1-10.55-1.16-21.06v-.32l38.4.19,0,.65s22.61,10.55,24.91,12.44S259.74,476.38,257.64,477Z" style="fill:#AF7F05"></path><path d="M257.64,477c-2.09.67-61.81,1-64-.44-.86-.54-1-10.55-1.16-21.06v-.32l38.4.19,0,.65s22.61,10.55,24.91,12.44S259.74,476.38,257.64,477Z" style="opacity:0.4"></path><path d="M257,474.54c-10-.34-50.52-.8-60.47-.39-.08,0-.08.06,0,.07,9.94.56,50.43.69,60.47.49C257.22,474.7,257.22,474.55,257,474.54Z" style="fill:#263238"></path><path d="M158.53,293.1s25.79,56.34,27.9,65.35c2,8.5,1.51,97.09,1.51,97.09l44.41-.32s-6.24-89.56-7-98.64c-1-11.94-11.42-39.15-22.43-68.24C198.22,276,192,263.93,188.66,251.59l-48.21.47s.63,21.77,10.69,37.42C151.14,289.48,155.64,291.52,158.53,293.1Z" style="fill:#37474f"></path><path d="M228.44,447.27c-8.66-.42-17.36-.27-26,.06-2.45.09-4.89.21-7.34.38-.09,0-.08.13,0,.13,8.66.37,17.36.31,26,0,2.45-.1,4.9-.22,7.34-.4A.07.07,0,1,0,228.44,447.27Z" style="fill:#263238"></path><path d="M169.6,294.07a40,40,0,0,1-6.65-.54,65.18,65.18,0,0,1-6.45-1.72,51.56,51.56,0,0,0-6.32-1,21.93,21.93,0,0,1-6.2-1.78c-.09,0-.17.09-.08.14a38,38,0,0,0,6,2.51c2.12.65,4.34.72,6.5,1.22a53.7,53.7,0,0,0,6.63,1.46,23.75,23.75,0,0,0,6.63-.17C169.71,294.2,169.68,294.07,169.6,294.07Z" style="fill:#263238"></path><path d="M173.75,329.25c-.47-1.31-.91-2.64-1.4-3.95-1-2.65-2-5.31-3.11-7.94-2.19-5.22-4.26-10.48-6.57-15.68-1.31-2.95-2.49-5.93-4-8.82,0-.07-.17,0-.15,0,.78,2.7,1.88,5.34,2.86,8s2,5.3,3.09,7.94c2.09,5.25,4.14,10.51,6.43,15.72q.94,2.19,2,4.36c.71,1.48,1.26,3,2.11,4.44,0,.08.19,0,.17,0C174.81,331.94,174.22,330.6,173.75,329.25Z" style="fill:#263238"></path><path d="M182.58,254.55c0-.15-.15-.06-.14.06a47.45,47.45,0,0,0,2.41,11.78l4.09,11.35,8.22,22.71c6.09,17,12.43,34,18.08,51.2a22.2,22.2,0,0,1,1.06,5.83c1.94,21.84,4.79,61.88,6.63,84.2,0,.08.21.18.22,0,0-.35-1.58-24.07-1.58-24.07-1-14.33-2.3-34.08-3.44-48.17-.32-4-.63-8-1-12a22.73,22.73,0,0,0-1.08-6c-8-24.14-17.83-49.86-26.71-73.8L185,266.31a46.13,46.13,0,0,1-2.46-11.76Z" style="fill:#263238"></path><path d="M179.08,202.25c-2.6.2-8.15-4.48-10.39-8.51a67.54,67.54,0,0,1,.58-6.77c.19-2.17.35-4.6.33-6.82l13.94,3.3a35.52,35.52,0,0,0-1.28,8.53,4.45,4.45,0,0,0,.1.91,1,1,0,0,0,0,.15C182.67,194.77,183.14,201.94,179.08,202.25Z" style="fill:#ad6359"></path><path d="M182.38,193a8.07,8.07,0,0,1-1.43.09c-7.73-.12-9.92-9.47-10.47-12.76l13.07,3.09a35.61,35.61,0,0,0-1.3,8.53,4.26,4.26,0,0,0,.11.9C182.36,192.93,182.38,193,182.38,193Z" style="fill:#263238"></path><path d="M186.81,157.59a7.39,7.39,0,0,1,5.62,6.18c.68,5.18-1.26,9.78-1.71,10S186.81,157.59,186.81,157.59Z" style="fill:#263238"></path><path d="M169.23,161.34c-2.06,4.73-1.1,19.2,2,22.76,4.53,5.16,12.76,6.55,17.35.92,4.45-5.46,2.87-24.29-.7-27.61C182.65,152.53,172.27,154.35,169.23,161.34Z" style="fill:#ad6359"></path><path d="M168.43,174.58c.46,4.12,1.42,7.92,2.82,9.52,4.53,5.16,12.76,6.55,17.35.92,3.12-3.82,3.27-14.19,1.86-21.21v0c-.61-3-1.49-5.39-2.56-6.38-5.25-4.88-15.63-3.06-18.67,3.93C168.09,164,167.87,169.52,168.43,174.58Z" style="fill:#ad6359"></path><path d="M183,171.68s-.08,0-.08.09c.06,1,0,2.1-.91,2.45a0,0,0,0,0,0,.06C183.1,174.09,183.22,172.6,183,171.68Z" style="fill:#263238"></path><path d="M182.1,170.69c-1.57-.08-1.6,3.08-.14,3.14S183.42,170.75,182.1,170.69Z" style="fill:#263238"></path><path d="M188.31,171.66s.08,0,.08.08c0,1,.07,2.1,1,2.44,0,0,0,.06,0,0C188.26,174.07,188.12,172.57,188.31,171.66Z" style="fill:#263238"></path><path d="M189.2,170.65c1.57-.11,1.66,3,.2,3.14S187.88,170.73,189.2,170.65Z" style="fill:#263238"></path><path d="M181,169.44c.44,0,.85-.07,1.29-.11a2.1,2.1,0,0,0,1.29-.37.66.66,0,0,0,.1-.81,1.68,1.68,0,0,0-1.57-.58,2.49,2.49,0,0,0-1.62.67A.71.71,0,0,0,181,169.44Z" style="fill:#263238"></path><path d="M190.23,169.69a12.77,12.77,0,0,1-1.25-.34,2.1,2.1,0,0,1-1.21-.59.66.66,0,0,1,0-.81,1.65,1.65,0,0,1,1.65-.29,2.38,2.38,0,0,1,1.47.94A.71.71,0,0,1,190.23,169.69Z" style="fill:#263238"></path><path d="M181.53,180.58c.23.23.46.55.81.58a2.55,2.55,0,0,0,1-.23s.07,0,.05,0a1.31,1.31,0,0,1-1.25.51,1,1,0,0,1-.76-.87C181.42,180.57,181.49,180.55,181.53,180.58Z" style="fill:#263238"></path><path d="M182.58,177.67a3.35,3.35,0,0,0,2.21,1.5,4.31,4.31,0,0,0,1.19.07.85.85,0,0,0,.23,0l.22,0a.23.23,0,0,0,.19-.21h0v-.1h0v-.08c0-.75,0-1.9,0-1.9.28.14,1.67.79,1.65.39a49.71,49.71,0,0,0-1.18-10.07.09.09,0,0,0-.18,0c0,3.13.61,6.24.69,9.39a5.75,5.75,0,0,0-1.56-.5c-.11,0,.15,2.21.11,2.55v0a4.64,4.64,0,0,1-3.43-1.11C182.6,177.52,182.53,177.59,182.58,177.67Z" style="fill:#263238"></path><path d="M185.54,178.85a3.94,3.94,0,0,1-1.59,1.21,1.73,1.73,0,0,1-1.08.05c-.77-.21-.79-.92-.64-1.53a4.1,4.1,0,0,1,.36-.94A5.1,5.1,0,0,0,185.54,178.85Z" style="fill:#263238"></path><path d="M184,180.06a1.73,1.73,0,0,1-1.08.05c-.77-.21-.79-.92-.64-1.53A1.82,1.82,0,0,1,184,180.06Z" style="fill:#ff9abb"></path><path d="M169.87,174.08c2.54.16,4.09-2.31,4.86-6.28.45-2.31-.27-6.89-.27-6.89s6.55,2.88,10.22,2.47,6.73-3.65,6.49-6.53c-.2-2.47-4.45-5.59-9.94-5.69-3.83-.07-10.22,3.16-13,7.34,0,0-4.76,2.42-4,6S167,173.89,169.87,174.08Z" style="fill:#263238"></path><path d="M170,173.39c3.7.63,5.46-4.18,5.46-6.68s-1.26-5.2-1.87-7.73c0,0,0,0,0,0,1.36,3.05,2.85,6.92,1.76,10.15-.68,2-2.26,5.39-5.41,4.44C169.83,173.53,169.85,173.37,170,173.39Z" style="fill:#263238"></path><path d="M163.55,163.45c.41-2.25,2.91-4.52,5-5.09,0,0,0,0,0,0-2.54,1-5.43,4-4.57,6.88a20,20,0,0,0,3.48,7.06s0,.1-.07.06a12.43,12.43,0,0,1-2.52-4.36C164.32,166.66,163.26,165,163.55,163.45Z" style="fill:#263238"></path><path d="M167.78,158.85c2.91-4.41,9.32-9.49,14.92-8.29,0,0,0,0,0,0-5.93-.76-11.14,4.4-14.71,8.45C167.88,159.14,167.7,159,167.78,158.85Z" style="fill:#263238"></path><path d="M171.79,173.79s-2.78-4.9-5-3.95-.41,7.83,2,9a2.5,2.5,0,0,0,3.46-1Z" style="fill:#ad6359"></path><path d="M167.38,171.8s0,0,0,.06a6.35,6.35,0,0,1,2.88,4.24,1.39,1.39,0,0,0-2-.57c-.05,0,0,.11,0,.1a1.54,1.54,0,0,1,1.63.69,7.58,7.58,0,0,1,.68,1.44c.07.16.35.11.31-.07v-.05C171.12,175.46,169.71,172.24,167.38,171.8Z" style="fill:#263238"></path><path d="M184.17,200.16l-.09-7.59-15.23-6.28-1.64,5.38a24.81,24.81,0,0,0,5.64,8.34C176.63,203.47,181.13,203.63,184.17,200.16Z" style="fill:#ebebeb"></path><path d="M133.09,266.45l15.14,1.34,4.15-7.31,2.09,7.87,42.9,3.81L194,261.09c-1.79-17.9-4.52-54.32-10.54-65-2-3.63-11.5-7.28-15.87-4.86-11.38,6.28-23.39,45.18-29.79,64.17C137.81,255.38,133,266.28,133.09,266.45Z" style="fill:#AF7F05"></path><path d="M153.9,252.76a97.22,97.22,0,0,1,5.74-28.56c-1.86,9.06-4.06,19.43-5.74,28.56Z" style="opacity:0.1"></path><path d="M175.22,203.91c-6.33,23.4-8.4,53.29-2.19,58,7.44,5.61,17.32-20.95,17.29-22.37,0-2.07-3.43-18.77-5.81-35.85S176.78,198.13,175.22,203.91Z" style="fill:#AF7F05"></path><path d="M191,242.12c-.57-2.86-1.09-5.73-1.61-8.6s-1-5.75-1.49-8.63l-1.4-8.63-.67-4.33c-.2-1.44-.42-2.88-.61-4.33.28,1.43.55,2.86.82,4.3l.78,4.3,1.5,8.62c.46,2.88.95,5.76,1.39,8.64S190.64,239.23,191,242.12Z" style="fill:#263238"></path><path d="M186.49,214.26a16.2,16.2,0,0,1,0-2.31c0-.38,0-.76.08-1.14s.09-.76.14-1.15a9.94,9.94,0,0,1,.1,2.31A13.68,13.68,0,0,1,186.49,214.26Z" style="fill:#263238"></path><path d="M173.11,262.59c5.39,4.37,15,3,42.45.59,3.79-.33,9.35-28.36,5.28-28.22-5.12.18-25,2-26.4,2.3C182.34,239.92,169.45,259.63,173.11,262.59Z" style="fill:#ad6359"></path><path d="M211.83,237s9.82-3.43,16.34-5.37c3.64-1.08,10.05-2.38,13.09-2,4.54.64,23.14,6.21,21.88,10.75-1.13,4.11-16.5-2.71-16.5-2.71s16.12,5.51,13.84,10.21-18.62-5.32-18.62-5.32,16.43,6,13.32,10.5c-2.35,3.38-17.66-4.86-17.66-4.86s14.08,5.28,11.81,8.86c-2.51,4-17.12-2.76-17.12-2.76-7.3,8.12-14.1,9-19,9.05C212,263.44,211.83,237,211.83,237Z" style="fill:#ad6359"></path><path d="M241.19,235.48c1.91.58,3.86,1.15,5.72,1.9s3.69,1.56,5.47,2.47a34,34,0,0,1,6.59,4.23c-3.82-2.68-10.43-5.45-12.29-6.2s-3.67-1.59-5.52-2.33A0,0,0,1,1,241.19,235.48Z" style="fill:#263238"></path><path d="M238.37,242.14c2.41.84,4.84,1.59,7.22,2.55s4.53,2.05,6.83,3.16c.17.08.07.15-.11.07-2.34-1-4.58-1.77-6.93-2.76s-4.66-2.07-7-3C238.31,242.18,238.33,242.13,238.37,242.14Z" style="fill:#263238"></path><path d="M234.92,247.42a56.85,56.85,0,0,1,10.74,4.74c.18.09,0,.16-.15.08-3.54-1.64-6.31-3-10.63-4.69C234.81,247.52,234.84,247.4,234.92,247.42Z" style="fill:#263238"></path><path d="M217.6,234.61l-15.45,31.84s-24,.7-29.1-4.22c-3.34-3.24,9-23.3,22.55-25.22Z" style="fill:#AF7F05"></path><path d="M181.2,245.61A23.54,23.54,0,0,1,195.61,237c.07,0,.1.1,0,.12-5.75,1.48-12.59,6.67-14.37,8.58C181.23,245.74,181.16,245.66,181.2,245.61Z" style="fill:#263238"></path><path d="M194.71,264c1.52-3.59,3.22-7.1,4.93-10.6s3.42-7,5.22-10.48c1-2,2-3.92,3.11-5.84,0-.05.12,0,.1,0-1.51,3.59-3.2,7.11-4.89,10.61s-3.42,7-5.18,10.51c-1,2-2,3.92-3.11,5.84C194.84,264.17,194.67,264.11,194.71,264Z" style="fill:#263238"></path><path d="M217.55,234.27a32.83,32.83,0,0,0-4.54.26c-1.51.14-3,.31-4.53.49-3,.36-9.39.79-14.68,2.33-.05,0,.33.21.38.19,2.48-.86,21.57-2.45,23.08-2.77a3.4,3.4,0,0,0-.07.34c0,.09.09.16.16.08s.23-.37.37-.55A.23.23,0,0,0,217.55,234.27Z" style="fill:#263238"></path><path d="M203.21,264.27l-1,2.21v0a97.34,97.34,0,0,1-20.61-.49c-6.22-1-10-2.44-11.48-9.1-1.94-8.43-1.16-17.21-.28-25.73A161.22,161.22,0,0,1,173.48,211c-1.27,6.73-2.25,13.51-2.9,20.32a107.15,107.15,0,0,0-.37,20.41c.36,3.28.88,6.77,2.68,9.58,3.17,4.37,13.84,4.63,19,5,3.32.19,7.11.12,10.21.13l1.12-2.15Z" style="fill:#263238"></path><path d="M172.65,211.87c-.09,1.28-.13,2.48-.15,3.75a3.57,3.57,0,0,1,.15-3.75Z" style="fill:#263238"></path></g></svg>
